 <svg  version="1.0" xmlns="http://www.w3.org/2000/svg"  width="500.000000pt" height="500.000000pt" viewBox="0 0 500.000000 500.000000"  preserveAspectRatio="xMidYMid meet">  <g transform="translate(0.000000,500.000000) scale(0.050000,-0.050000)" fill="#000000" stroke="none"> <path d="M1910 6862 c-103 -21 -491 -232 -633 -344 -40 -32 -161 -100 -270 -151 -377 -179 -510 -367 -479 -674 7 -67 14 -213 16 -323 1 -110 8 -213 16 -230 127 -281 235 -394 444 -467 58 -20 169 -80 246 -132 77 -52 185 -121 240 -152 55 -32 150 -96 210 -142 164 -125 351 -153 450 -68 44 37 218 142 277 166 20 8 97 55 170 103 159 105 275 172 423 246 60 31 153 97 205 147 101 98 104 106 98 339 -3 171 14 237 85 316 220 246 227 384 20 384 l-84 0 -24 99 c-54 228 -159 320 -610 542 -143 70 -327 168 -410 216 -137 81 -287 147 -318 140 -6 -1 -39 -8 -72 -15z m198 -88 c59 -44 37 -162 -33 -167 -30 -3 -70 -15 -90 -27 -29 -19 -25 -20 25 -11 43 9 52 7 31 -7 -112 -74 -315 67 -246 170 45 66 243 93 313 42z m97 -163 c-30 -25 -104 -95 -163 -154 -65 -64 -111 -97 -117 -82 -10 29 -85 -3 -85 -37 0 -11 9 -15 20 -8 29 18 24 -17 -9 -61 -28 -38 -29 -37 -18 6 15 58 -33 61 -73 5 -16 -22 -35 -40 -43 -40 -7 0 -9 18 -3 40 9 32 1 40 -40 40 -28 0 -54 9 -57 20 -4 11 -51 28 -104 37 -90 17 -111 -3 -23 -22 22 -4 -27 -15 -110 -23 -92 -9 -169 -7 -200 5 -43 18 -45 21 -10 23 22 1 72 19 110 39 39 21 113 58 165 82 52 24 95 56 95 71 0 36 64 68 139 68 63 0 141 -59 141 -106 0 -18 22 -23 73 -17 57 6 69 2 57 -19 -13 -23 -11 -23 11 -3 15 14 41 25 58 25 17 0 72 40 121 88 50 48 97 84 105 79 8 -5 -10 -30 -40 -56z m175 -11 c0 -11 25 -21 55 -22 l55 -2 -60 -15 c-89 -21 -241 -113 -234 -141 3 -15 -7 -20 -26 -13 -18 7 -27 5 -22 -5 6 -9 -6 -32 -26 -51 -27 -23 -40 -26 -46 -10 -11 35 -76 -34 -76 -80 0 -20 -13 -47 -30 -61 -24 -20 -30 -19 -30 6 0 17 -11 35 -25 40 -32 12 10 87 45 79 12 -4 18 2 12 12 -7 10 13 35 43 54 30 20 97 80 149 133 89 92 216 137 216 76z m85 -167 c-14 -129 73 -236 125 -153 33 53 270 -51 324 -141 41 -69 68 -67 88 5 17 67 -7 105 -60 91 -29 -8 -63 10 -117 62 -81 79 -235 106 -235 42 0 -16 -15 -31 -34 -35 -62 -12 -78 153 -16 172 24 7 25 4 5 -17 -14 -15 -24 -50 -24 -78 2 -50 2 -49 34 13 39 79 90 78 247 -6 276 -147 392 -247 427 -368 34 -119 35 -115 -19 -105 -27 5 -50 16 -50 24 0 8 -26 10 -59 5 -36 -5 -55 -18 -48 -33 5 -14 -6 -32 -24 -38 -38 -15 -95 46 -130 137 -40 108 -52 119 -139 134 -104 18 -128 36 -48 36 45 1 51 5 28 20 -64 41 -160 23 -219 -42 -76 -83 -188 -93 -196 -18 l-6 50 32 -50 31 -50 -12 60 c-16 74 -20 78 -61 62 -23 -8 -29 -26 -21 -52 6 -22 17 -57 24 -77 25 -83 -167 -168 -233 -102 -90 90 177 492 348 525 24 5 44 10 46 11 1 2 -2 -36 -8 -84z m-879 -152 c188 -71 254 -245 254 -667 0 -367 18 -451 116 -536 37 -33 65 -63 61 -65 -247 -168 -370 45 -376 653 -3 379 -34 460 -218 576 l-91 58 103 0 c56 0 124 -8 151 -19z m-641 -53 c-60 -47 -94 -108 -42 -76 15 9 18 5 9 -9 -8 -13 -22 -19 -31 -14 -9 6 -30 -28 -48 -74 -98 -261 -116 -553 -56 -915 28 -165 30 -211 10 -216 -14 -4 -20 -21 -13 -40 8 -23 5 -28 -9 -14 -11 11 -31 56 -45 100 -14 44 -33 89 -41 101 -28 34 -57 296 -65 584 0 14 -7 25 -15 25 -28 0 22 192 81 313 55 112 131 192 249 261 73 43 83 27 16 -26z m490 -121 c268 -200 115 -620 -211 -579 l-85 11 3 -309 c3 -322 -8 -370 -82 -370 -80 0 -85 38 -81 583 3 577 9 605 127 679 82 51 250 44 329 -15z m1324 16 c37 -8 71 -24 76 -37 4 -14 -10 -19 -39 -13 -27 6 -37 4 -23 -6 13 -10 -66 -19 -180 -21 -138 -2 -182 2 -137 13 69 17 92 32 97 63 1 10 3 22 5 26 2 9 83 -1 201 -25z m-244 -160 c49 -10 85 -10 85 0 0 38 229 -9 285 -58 40 -36 49 -81 10 -50 -14 11 -70 24 -125 30 -55 6 -85 7 -66 1 46 -12 4 -86 -48 -86 -52 0 -197 62 -186 80 22 36 -173 35 -250 -2 -43 -21 -87 -38 -97 -38 -10 0 -24 -14 -31 -31 -20 -54 -96 3 -88 67 6 51 12 54 96 48 65 -4 106 6 150 36 61 43 71 43 265 3z m745 -109 c0 -51 -63 -154 -94 -154 -75 1 -163 115 -121 157 24 24 215 21 215 -3z m-278 -159 c70 -80 136 -152 148 -160 21 -15 69 31 199 191 62 76 88 95 129 90 105 -12 81 -95 -87 -296 l-151 -182 0 -186 c0 -280 -93 -389 -375 -443 -142 -27 -152 -24 -60 23 247 124 366 518 208 690 -262 284 -291 332 -229 394 47 47 92 22 218 -121z m-477 -28 c120 -114 178 -584 75 -617 -67 -21 -120 7 -120 63 0 41 -7 48 -35 37 -328 -135 -586 255 -336 508 113 114 299 118 416 9z m258 -92 c25 -36 56 -75 68 -88 27 -28 38 -259 14 -274 -23 -14 -55 10 -71 52 -7 20 -15 40 -17 45 -2 5 -10 48 -19 95 -8 47 -24 119 -34 160 -24 92 -2 96 59 10z m-1308 -207 c30 -30 30 -35 -1 -58 -35 -25 -49 -61 -16 -41 31 19 68 -49 66 -120 -2 -38 5 -69 14 -69 10 0 16 -22 15 -50 -4 -61 -1 -60 -55 -5 -24 25 -38 35 -32 23 7 -12 1 -22 -12 -22 -13 -1 -39 -7 -56 -15 -23 -9 -36 -1 -43 28 -6 22 -3 41 7 41 10 0 18 -7 18 -17 0 -9 14 -16 30 -16 17 0 30 7 30 16 0 10 -7 17 -16 17 -8 0 -15 54 -15 120 1 66 -6 120 -15 120 -9 0 -11 9 -4 20 7 12 23 15 35 7 14 -9 17 -2 9 20 -16 42 0 42 41 1z m1525 -69 c0 -36 -8 -56 -20 -49 -11 7 -20 34 -20 61 0 27 9 49 20 49 11 0 20 -28 20 -61z m0 -239 c0 -277 -534 -411 -936 -236 -142 62 -152 74 -96 118 60 47 72 47 229 -2 261 -82 548 -38 715 110 95 83 88 82 88 10z m-1553 -150 c16 -16 32 -36 36 -45 4 -8 46 -41 93 -74 56 -37 84 -70 78 -90 -5 -22 5 -32 31 -32 32 0 36 10 26 59 -11 56 -10 57 27 24 24 -22 41 -26 45 -12 5 13 44 -2 97 -37 50 -32 126 -65 170 -73 44 -8 67 -20 50 -26 -16 -6 -48 -30 -70 -54 -50 -54 -123 -52 -205 6 -66 47 -95 56 -75 24 7 -11 4 -20 -7 -20 -10 0 -24 14 -31 31 -15 40 -72 30 -118 -20 -30 -33 -39 -35 -54 -11 -15 24 -25 22 -62 -11 -25 -21 -39 -28 -31 -16 7 13 -2 39 -21 58 -32 32 -31 34 15 21 l49 -14 -50 29 c-58 34 -93 4 -54 -46 13 -17 3 -13 -22 8 -25 21 -65 42 -89 45 -59 9 -74 40 -47 96 18 40 27 43 52 22 31 -27 193 -112 212 -112 6 0 -27 29 -74 65 -89 68 -134 125 -115 145 20 20 68 -10 102 -65 30 -49 34 -50 34 -14 1 23 -25 61 -59 86 -33 24 -60 53 -60 64 0 30 94 22 127 -11z m1313 -298 c0 -14 -160 -92 -187 -92 -15 0 -70 -22 -125 -50 -54 -27 -101 -41 -105 -30 -3 11 -15 15 -26 8 -38 -23 -227 -24 -242 -1 -71 111 -7 140 345 154 160 6 301 13 315 15 14 2 25 0 25 -4z m-1001 -116 c50 -25 129 -45 175 -45 145 -1 270 -158 175 -220 -108 -70 -409 22 -409 125 0 11 -18 24 -40 30 -49 13 -84 94 -55 129 27 34 48 32 154 -19z"/> <path d="M1614 6537 c-54 -30 -39 -58 17 -33 42 19 62 17 110 -11 61 -37 82 -17 29 27 -40 33 -114 41 -156 17z"/> <path d="M2380 6282 c0 -85 20 -103 66 -61 41 38 41 39 3 68 -53 40 -69 38 -69 -7z"/> <path d="M3020 6072 c0 -29 48 -57 67 -39 5 6 5 24 -1 39 -13 36 -66 36 -66 0z"/> <path d="M1180 5940 c-55 -55 -55 -190 -1 -219 146 -79 294 104 175 216 -58 54 -122 55 -174 3z"/> <path d="M2246 5556 c-102 -49 -104 -216 -2 -254 139 -51 252 124 147 229 -53 53 -78 57 -145 25z"/> <path d="M3890 5736 c-429 -217 -321 -817 151 -834 248 -9 299 37 299 270 0 161 -2 170 -51 192 -83 38 -116 -14 -111 -173 l4 -131 -100 0 c-186 0 -290 100 -290 279 0 206 177 304 442 245 93 -21 126 -3 126 68 0 82 -51 105 -260 117 -102 6 -147 -1 -210 -33z"/> <path d="M5221 5698 c-302 -121 -361 -543 -104 -733 34 -25 75 -45 91 -45 16 0 34 -8 40 -17 22 -35 220 -3 296 47 382 253 96 915 -323 748z m257 -209 c131 -110 120 -302 -22 -388 -160 -98 -336 7 -336 201 0 202 210 311 358 187z"/> <path d="M5843 5702 c-34 -21 -33 -463 0 -596 61 -241 410 -326 604 -148 86 80 107 154 123 435 16 296 -8 356 -126 315 l-54 -19 -3 -279 c-4 -326 -27 -370 -194 -370 -175 0 -223 95 -205 405 14 245 -33 328 -145 257z"/> <path d="M6719 5700 c-39 -22 -53 -769 -16 -814 28 -34 80 -33 126 1 33 24 37 54 33 260 -5 272 2 278 125 108 50 -69 119 -156 153 -195 35 -38 77 -91 95 -117 44 -65 120 -91 169 -59 65 45 65 784 0 819 -94 51 -113 9 -120 -260 -4 -198 -11 -243 -35 -243 -16 0 -29 8 -29 18 0 19 -151 212 -236 302 -26 28 -70 84 -98 125 -52 76 -103 93 -167 55z"/> <path d="M7596 5682 c-26 -36 -33 -758 -9 -798 9 -14 392 -13 475 2 151 26 380 421 281 482 -10 6 -23 37 -29 69 -17 85 -103 175 -220 230 -138 66 -456 75 -498 15z m455 -182 c89 -56 120 -142 99 -272 -20 -120 -116 -183 -290 -192 l-110 -6 -6 255 -5 255 123 0 c89 0 142 -11 189 -40z"/> <path d="M4450 5571 c-30 -31 -39 -66 -37 -141 19 -711 -21 -799 -348 -774 -161 12 -138 56 36 69 143 10 239 62 239 128 0 34 -17 33 -80 -3 -28 -16 -106 -29 -180 -30 -153 -2 -223 -43 -216 -129 8 -93 83 -141 216 -139 332 7 488 154 481 453 -4 168 27 177 115 35 75 -120 219 -205 273 -161 48 40 37 73 -38 117 -112 67 -146 135 -95 190 113 121 103 314 -21 393 -74 47 -296 42 -345 -8z m273 -124 c75 -68 12 -176 -96 -163 -58 6 -88 92 -59 168 15 38 111 35 155 -5z"/> </g> </svg> 