<?xml version="1.0" encoding="UTF-8"?>
<svg version="1.1" viewBox="0 0 2000 2000" width="1280" height="1280" xmlns="http://www.w3.org/2000/svg">
<path transform="translate(440,696)" d="m0 0 12 1 17 6 16 8 8 5 11 4 16 9 14 9 11 7 23 11 16 8 27 13 17 9 32 16 17 10 12 8 13 11 5 4 9 11 10 16 5 11 7 21 6 20 11 2 26 2 6 3 5 5 4 9 1 6-2 4-4 3-6 11-8 12-5 10-8 10-5 5-10 11-6 10-3 9-1 12v61l-2 17-4 11-6 9-7 8-8 7-13 10-22 14-17 7-14 9-5 4-14 8-25 14-31 20-15 9-17 10-14 8-16 10-12 7-12 5-8 7-12 7h-10l-7 2h-19l-23-6-10-6-16-12-14-9-16-12-23-13-18-11-14-9-36-24-17-9-15-6-21-7-14-9-10-7-7-6-9-6-7-7-11-15-9-16-5-13-4-15-5-27-2-19-1-20-1-57-2-2-2-7v-24l3-16 8-24 8-16 7-11 9-10 12-11 14-10 14-8 16-8 20-9 38-19 19-13 13-10 21-14 17-9 23-13 19-10 13-5 15-8 4-3 12-4zm-319 262m401 301m-2 1m-2 1m-1 1m-5 3m-7 4m-5 3m-2 1m-1 1m-5 2-5 3 4 2 4-5zm-7 4m-2 1 1 2 1-2z" fill="#1B2D3F"/>
<path transform="translate(425,705)" d="m0 0h23l15 3 7 2 9 1 3 1 2-2 9 6 11 4 16 9 14 9 11 7 23 11 16 8 27 13 17 9 32 16 17 10 12 8 13 11 5 4 9 11 10 16 5 11 7 21 6 20 11 2 26 2 6 3 5 5 4 9 1 6-2 4-4 3-5 9-2 1 1-5v-13l-4-8-6-4h-14l-7 3-8 9-10 15-12 14-5 6h-2l-2 4-3 3h-2l-2 5-8 7-4-1v-2l-4-1-6-7v-2l-4-2-6-6v-3l-4-2-12-13-9-11-3-4v-2l-4-2-2-4-5-2-4-3-8-1-10 4-5 6-2 5 1 8 6 11 6 8v2l3 1v2h2l5 5 9 10 8 10 9 10 5 4 10 13 7 5v2h-2l2 26v30l-4 22-2 5h-1v-8l-2 5h-2l-2 6-3 1 3-13 3-26-4 3-1-2-14 14-8 7-13 9-10 6-20 9-14 5-26 4h-23l-8-4v-2l-7 1-1 1-12-1v-1l4-1-3-1-1-2-12-2-15-5-14-3-6-3-2-3h-10v-2l-6-2-7-7v-2l-4-2-5-5v-2l-4-2-5-8-5-14-4-16-2-22-1-122-5-21-4-12-7-11-3-3-3-5-1-3-3-1-6-7-15-11-9-4-8-2v-1h6l2 1v-4l-4-1h11l25 4 2 1-1 8-2 3-5-8-4-2 1 7 7 6 1 4h2l3-9 7-8 6-7h3l1 4h2l2-4 5-8 2-5 2-1 1 3-8 18-4 10-1 2 4-4 6-10 4-11 3-6h2l2-4h3l-4 7v2l13-6 13-9 11-9 1-2h2l2-4 9-11 12-12 8-6 18-8 6-2-13-2-11-6-9-5-1-2 6 2 17 8 5 1v-3l-6-3-12-5-14-5 1 11v9l-2 6h-2l-2 5-6 8-6 4-8 5-13 4v1h-9l-6 1-8-1-10 3-5 2v-2l8-5v-4l-6-2-8-7-6-10-2-4v-13l1-7-12 6-17 8-8 4-7 4-6 1 5-5 16-10 13-8 8-4 4-1v-2l6-1v-2l10-4 14-5z" fill="#1B2D3F"/>
<path transform="translate(271,853)" d="m0 0h21l16 5 14 7 10 8 8 10 6 10 5 14 2 13-1 16-4 13-6 12-8 11-9 8-10 6-16 7-12 3h-16l-10-2h-5l-1 8v112l-2 13-3 7-5 5-5 2h-10l-7-3-5-5-3-7v-214l3-15 5-12 6-11 8-8 14-8 13-4z" fill="#E4A720"/>
<path transform="translate(1505,952)" d="m0 0 10 1 6 3 8 9 7 9 8 9 8 10 12 14 13 16 11 13 11 14 12 14 3 3 1-14 1-85 4-9 8-5 4-1h8l9 3 5 6 2 9v150l-2 8-4 6-6 4-4 1h-13l-8-4-7-6-9-11-12-14-12-16-9-10-13-15-11-14-10-11-9-11-1-1v91l-2 12-5 7-4 2-7 1h-8l-9-3-5-5-1-3-1-25v-137l3-6 7-6 5-2z" fill="#E1BA20"/>
<path transform="translate(1015,974)" d="m0 0h25l13 2 10 4 9 6 8 8 6 10 4 12 1 7v11l-4 13-6 12-9 10-7 6-2 1 1 5 9 14 11 11 15 10 5 5 2 3-1 7-5 5-3 2h-14l-13-4-10-6-12-11-8-9-9-14-7-11-3-2-4 1-1 38-2 21-5 15-9 16-9 11-10 9-16 9-15 5-16 3-11 1h-36l-14-5-9-8-4-10v-14l4-11 8-7 10-4 44-1 16-5 20-10 2-2h4l-1 7-6 15-9 10-11 5-17 4-42 1-3 2v9l12 2 39-1 14-4 12-6 10-9 6-8 4-13 3-15 1-27 1-106 4-10 5-7 8-5 8-2zm10 32-8 3-2 3-1 11 2 20 1 3 8 2h9l10-3 8-6 4-8v-10l-3-6-6-5-7-3-5-1z" fill="#E4A720"/>
<path transform="translate(1699,952)" d="m0 0h54l21 1 16 4 12 5 17 11 10 9 9 10 7 12 7 19 3 16v18l-2 12-6 16-9 15-9 12-7 7-15 10-12 6-21 4-14 1-47 1-16-1-8-2-8-7v-161l5-9 7-6zm23 39v110l1 1h41l16-4 10-5 10-9 5-6 6-16 1-4v-25l-6-16-6-8-7-7-14-8-9-3z" fill="#E2B920"/>
<path transform="translate(541,774)" d="m0 0h12l-1 5-3 13v17l5 12 6 8 2 1 10-4 8-7h8l20 8 16 7 12 8 8 6 1 2 6 1h11l2-4-1-4-8-5-5 1-1 1-7-1-8-5-4-6-7-8-6-4-20-4-2-1h-12l-3 1 1-11 3-18 7 1 13 5 48 24 22 13 14 10 17 17 11 15 4 8 4 14 2 19-1 3-13-1-7-1 18 5 2 2v7l-5 16-5 12-3 5-4 1-16-3-6-4-6-7-5-10-5-5-6-5-7-11-4-5-8-13-6-11-4-18-7-5-17-3-18-4-9-3v-5l-7 1v-2h14l5 1h16l-15-3h-21l-10 5-6 9-4 7-12 5-17 5-10 5-11 10-15 10-9 3h-11l-10-5-5-7-1-4v-16l5-12 11-17 6-11 10-14 13-15 13-13 14-9z" fill="#9E24B6"/>
<path transform="translate(1179,952)" d="m0 0h16l14 2 15 5 13 8 12 9 10 13 9 17 5 16 2 12v18l-2 12-4 14-7 14-9 12-9 10-10 8-17 8-21 5h-22l-16-4-10-4-10-6-9-8-8-7-8-10-7-12-6-18-2-8v-25l3-16 6-15 8-14 9-10 14-11 9-6 12-5 11-3zm2 39-9 2-12 6-9 8-9 14-4 13v21l4 13 4 8 6 7 14 9 13 4 5 1h7l15-5 10-6 10-9 5-8 5-15 1-7v-8l-4-16-5-10-11-12-10-6-12-4z" fill="#E2BA20"/>
<path transform="translate(503,945)" d="m0 0h15l17 3 11 5 8 6 12 11 7 10 6 15 3 18 1 77-4 7-6 3h-14l-10-4-3-6-3-17-8 6-11 4-13 2h-12l-17-4-10-5-8-6-10-13-7-12-4-11-2-12v-13l4-18 6-12 12-14 11-10 14-7z" fill="#E4A720"/>
<path transform="translate(907,938)" d="m0 0h11l22 3 14 5 8 5 5 7 1 3v12l-6 8-7 3h-10l-18-5-19-2-21 2-11 4-10 6-8 8-9 13-4 12-1 5v19l4 16 7 13 9 10 10 6 9 3 15 2h19l9-2 1-54 5-6 10-5h12l6 4 5 6 1 3v59l-2 9-5 9-8 8-8 4-20 4h-34l-22-5-16-8-11-8-18-18-8-13-6-15-3-15v-27l3-19 5-14 7-11 9-11h2v-2l8-7 14-10 16-8 10-3z" fill="#E4A720"/>
<path transform="translate(1306,953)" d="m0 0h10l8 4 6 8 1 2 1 94 3 12 4 10 5 6v2l4 2 8 5 13 4h12l14-4 11-7 3-1 2-4 4-6 4-17 1-8v-89l3-6 6-5 4-2h14l8 5 5 6 1 2 1 26v20l-1 52-3 16-7 18-7 11-11 12-11 9-9 5-14 4-11 2h-24l-17-3-12-5-11-7-12-11-7-10-7-15-4-13-2-11v-97l3-8 8-7z" fill="#E1BA20"/>
<path transform="translate(625,925)" d="m0 0 8 1 9 6 4 5 3 3 9 11 10 11 6 7 2 1 3 5 7 6 6 8 4 2 1 2 4-1 7-6 2-4 6-5 1-2h2l2-4 11-12 10-14 7-10 8-7 4-1h14l6 4 4 6 1 3v13l-2 7-3 5-7 6-6 6h-2l-2 5-11 12-8 10-2 4-10 9-2 3h-2l-1 4-4 2v2l-3 1-1 5h-2l-1 69-3 19h-2l-2 6-7 11-4 6-8 7-10 9-4 2-3 3-6 2-10 4-41 5h-8l3-2 5-1v-2l16-8 8-7 3-4 5-3 3-4h2l1-4 5-4 3-4 2-6 2-1 7-17 4-22v-30l-1-12v-14h2l-3-3-7-6-6-8-4-5-8-7-11-13-4-5-6-7-4-3v-2h-2l-4-5-8-11-4-8-1-8 4-8 6-5z" fill="#C9CFD7"/>
<path transform="translate(317,821)" d="m0 0h15l13 2 10 3 11 7 11 9 4 5 5 5 4 6 7 10 4 11 5 19 1 5 1 122 2 22 6 23 6 12 9 10 5 4 7 8 6 3v3l-9 3-11 8-2 2h-9l-9-3-4-2-3-3-5-4-3-5-4-5-2-1v-3h-2l-6-11-5-9-3-10-2-7-3-19-1-47-1-56-2-31-3-19-5-13-2-2v-3h-2l-3-5-2-5h-2l-2-5-3-1-7-8-12-9-20-11v-2l8-2z" fill="#C9CFD7"/>
<path transform="translate(481,720)" d="m0 0 19 7 7 3 7 4v3l-2 1-10-4-15-7 3 2 16 9 13 2 1 2-17 6-11 6-7 6h-2l-2 4-8 8-9 12h-2l-2 4-14 11-10 7-10 4h-2l-1 3-1-3 3-6 2-3-4 4h-2l-2 6-4 11-6 10-3 4h-2l2-6 6-16 4-9h-2l-3 7-6 9h-2l-1-4-4 2-7 8-5 6-3 8h-2l-1-4-4-2-4-4-1-5 1-2 5 2 4 7 3-10-27-4h-12l-5-1-9-1-57-1-16-3-1-1h-7l3-3 6-3 10-7 11-7 10-7 3-1 5-5 3-1v-2l14-11 13-9 12-8 11-3 7-5 7-3 21-10 7-3-1 8v13l6 11 6 7 7 4 3 3-2 4-5 3h-2v2l10-5 6-1 9 1 5-1h7v-1l8-2 10-4 8-6 5-5 5-8h2l1-6v-9l-1-11z" fill="#1E94D0"/>
<path transform="translate(219,827)" d="m0 0 4 1-12 9-8 7-8 11-7 14-9 25-7 26-4 19-2 18-1 21v50l3 26 5 30 3 16 1 17 2 6 2 2-1 7-4 3 2 11 2 2-1 5-8 1-12-11-11-15-9-16-5-13-4-15-5-27-2-19-1-20-1-57-2-2-2-7v-24h1l1 23 2-4 4-20h1l-1 31-1 23 2-20 3-18 7-24 7-19 10-19 10-14 9-10 13-13 10-7 17-8z" fill="#2BA4E7"/>
<path transform="translate(305,1124)" d="m0 0 2 1 1 6-3 3 7-2 4 1v2l-6-1 3 5 11 2 1 11-5-5-3-2v3h2l2 6 6 2 2 7h2v-6h3l-1-2-5-1-2-4 1-4 5 2 7 5 8 4 6 7 7 5 4 7v4l5 2 7 2 1 5h2l-1-5v-9l2-1-5-8-2-4 5 2 1 3 5 2 5 3 7 4 4 2v2l4 2 5 3 4 5 3 1-8-8-9-7-3-2v-2l-4-2-1-3 2-1 17 10 7 6 17 8 11 3 7 1 21 1-4 3-12 5-4 1-2 5-7 10-3 4h-2v2l-4 3-5 1h-16l-11-3-3-1-1-2-4-2h-7v-2l-5-2-10-7-14-3h-2l-6 4-2 3h-2v3h-2v14l6 12 6 8 4 4v2l3 1v2l4 2 3 3v2l4 1 4 5-5-2-7-4-8-7-14-8-5-3-8-2-1-5-5-2-7-4h-3l-2-4v-2l-14-8-11-7-10-6-4-4-8-3v-5l-4-1v2l-5-2-9-4-9-6-5-2v-1h5v-2l8 2 5 1-4-4v-3l3 1 1 2 7 2v2h5v2h4l-3-2v-2l-4-1-3-2v-2h9v-3l3-1 1 4 7 1-1-4h-5v-2l2-1-1-3-3-1-1-3 4 1 10 5 4 4 12 1 7 4v2l5 2 9 5 1-1-6-4-3-3-4-2v-2h-2v-2l-6-2-8-8-7-9v-3l-1-4 10 2 1-2h4l-5-8 4 2 6 8-2 2 10 12v2h4l-6-7 1-3h2l1-4-1-3-7-2v-3l-4-2-5-6-5-1v-4l4 1-2-6 8 2z" fill="#1F94CF"/>
<path transform="translate(664,1080)" d="m0 0h1l-1 17-4 16-7 12-8 10-11 10-14 8-17 8-16 5-17 3-11 1h-28l-24-3-27-6-19-7-31-15-13-9 4-2 10-2 2-4 7-6 10-4 5 1 13 6 16 6 26 6 22 3h27l26-4 21-8 16-8 15-9 11-10 8-7z" fill="#E4A720"/>
<path transform="translate(626,1193)" d="m0 0 3 1-9 5-11 5-16 6-5 4-11 5-14 3-12 4-18 8 4-1 9-4 19-6 7-1v2l-13 8-10 7-14 9-6 4-9 5-13 8-6 3h-6v2l-12 6h-4l-3-16-3-7-7-6-11-7-4-9-1-10-1-5 2-6 8-5 16-5 11-1h10l1-3 20 1 7 1h21l38-1 37-3z" fill="#1F94D0"/>
<path transform="translate(361,1212)" d="m0 0h7l7 2v2l6 2 4 5 9 3v2l9 1 13 3h16l8-1v-2l6 1 6 11 6 4v2l5 2 7 6 4 11 1 11-5 5-6 3-7 5-6 2-13 1-15-2-11-2-12-5-10-6-7-6-2-4-2-1v-2l-5-2-5-3v-6l2-4-3 3-4-1-6-5-2-4-5-5-3-7-1-7 4-9z" fill="#C9CFD7"/>
<path transform="translate(541,774)" d="m0 0h12l-1 5-3 13v17l1 3v7l-7-2-3 1v2l-6-1-5-1v10l1 2-3 9-1 2 3 4h2v4l-4 3-3-7-4-2v-2h-7l-3 3-2 9 1 6 2 4 2 7-4-1-3-6v-3l-3 1-3-1 1 7 5 1v4l6 2 3 3 1 3-10 9-15 10-9 3h-11l-10-5-5-7-1-4v-16l5-12 11-17 6-11 10-14 13-15 13-13 14-9z" fill="#A92BC1"/>
<path transform="translate(694,846)" d="m0 0 2 1v2l4 2 4 4 1 3 5 5 6 9 1 5v11l2 1v8l-2 4 2 4 2 2-2 1h-11l-2-1-5-10-7-1-2 1 1 3 3 3-2 2-4-1-1-2h-3-10l-2 2 1 3 8 1h7v2l-12 5-6 4-2 4 4-3h2v-2l8-4h17l14-1 9 3 1 1v7l-5 16-5 12-3 5-4 1-16-3-6-4-6-7-5-10-5-5-6-5-7-11-4-5-8-13-3-8-2-4v-7h2l1-2 7 6 4 1 1-6 5-1 2-4h-3l1-5 4-1v2l3-1 1 2 4-2v11l4 3 4 2h6l-2-9-2-3-9-3-1-3-4 1 1-2h2l1-2 6-3 1 4 3 2h4 4v-2l1-1h-3l-1-4 3-2v-5z" fill="#A92BC1"/>
<path transform="translate(219,827)" d="m0 0 4 1-12 9-8 7-8 11-7 14-9 25-7 26-4 19-2 18-1 21v50l3 26 5 30 3 16 1 17 2 6 2 2-1 7-4 3 2 11 2 2-1 5-8 1-12-11-11-15-9-16-5-13-4-15-5-27-2-19-1-20-1-57-2-2-2-7v-24h1l1 23 2-4 4-20h1l-1 31-1 23 2-20 3-18 7-24 4-11 1 2 2 1-1 4-3 9-2 9-2 5-3 13-1 1-1 11-1 2-1 21-1 4 2 5-1 8v33l3 24 3 21 3 10 2 5v3l6 16 7 12 7 9v2h2v-2h2v3h5l1-2-2-1-2-6-2-3-1-4 4-1-1-9-1-1-1-17-2-8v-9l-1-9h2l-1-10-1-1-1-20 1-4-2-1v-8l-1-4 3-12 3-53-2-6 2-2 4-25 3-8v-9l2-9 2-5 1-10h-6l1-9h-4l-6 7-2 3h-2l-2 5-3 2-1-3 7-12 10-13 18-18 10-7 17-8z" fill="#1F94D0"/>
<path transform="translate(424,709)" d="m0 0h23l14 2 10 3 4 5 2 7v15l-2 7-4 6-5 3h-3l1-7 3-7v-6l-4 15h-2l-1 3-11 4-11 3-8 3-4 2h-10l-8-5v-2l-4-2-7-10-2-5v-12l3-7 5-5 16-9z" fill="#C8CED7"/>
<path transform="translate(509,891)" d="m0 0h9l13 3 23 4 17 1 16 7 3 2-4-4v-2l2-1-10-2-1-4h14l7 1h2 10l25 5v3l-5 1h-6l-1 1 16 2 5 4v3l4 2 4 6 1 3-6-2-5-4-3-3-17-1-26-4-1-1-1 5 2-1h8l3 1 7-1v2l-9 3-2 6-4 7-16-1-20-6-1-1v-5h-2l1-7-2-1h2l-2-4h-7l-5-2-11-2 2 3 7 1h2l8 1 2 4-5 1-1-1-17-1-17-3h-12l-3 5-30 10-2 2h-3l-3-7v-13h16l8-3 11-7 7-4z" fill="#1E89C1"/>
<path transform="translate(518,746)" d="m0 0h8l14 6v4l-24 7-11 4-3 2 29-9 14-3 11 4v2l-14 1-15 4-16 9-9 6-16 9-9 6-3 1 5-1 24-12 4 1-8 6-14 8-9 5-11 11-4-1 2-24h-2l-1 16-3 3-5 3h-2l-2 5-5 13-1 6-3 5-3 1-2 5-2 1-1-6v-8l7-15 4-9v-3l-4 6-3 9-8 11-4 1 1-16 3-5 9-7 7-5 7-4 12-11 7-8 12-13 11-10 15-8z" fill="#1F93CF"/>
<path transform="translate(512,984)" d="m0 0 12 2 9 6 5 6 4 11v9l-5 12-7 8-9 6-7 2h-11l-10-4-8-8-4-9v-14l4-11 4-6 9-6 9-3z" fill="#1B1F2A"/>
<path transform="translate(461,1200)" d="m0 0 2 1 2 3-10 4-4 2-1 10 1 1 2 13 2 3v3l5 2 10 7 5 5 4 16v6l10-4 3-2h3v-2l8-2 16-9 4-3h2l1 2 14-8 3 1 1 4-19 11-16 10-12 7-12 5-8 7-12 7h-10l-7 2h-19l-23-6-10-6-16-12-14-9-16-12-14-8 4-1 5 3 14 8 8 7 7 4 3 1-3-3-3-1-5-6-5-4-7-8-8-13-2-5v-10l1-4h2v-3h2l2-4 8-5v2h7l9 3 11 8 2 1v2l7-1 5 3v2l9 2 5 1h16l9-3v-2l5-5 7-11 4-4zm-100 12-10 3-4 10 2 9 5 8 11 11h3l3-3-2 4v6l7 4 3 1v2l3 2 3 5 8 6 11 6 8 3 16 3 15 1 11-2 6-3 5-4 8-4 2-3-1-11-4-11-7-6-5-2v-2l-6-4-6-11-6-1v2l-8 1h-16l-16-4h-6v-2l-10-4-4-5-5-1-1-2-6-2zm161 47m-2 1m-2 1m-1 1m-5 3m-7 4m-5 3m-2 1m-1 1m-5 2-5 3 4 2 4-5zm-7 4m-2 1 1 2 1-2z" fill="#1A364C"/>
<path transform="translate(274,895)" d="m0 0h15l9 4 6 5 6 10 1 4v10l-3 10-7 10-9 6-5 2h-13l-8-3-8-5-4-8-1-7v-18l4-8 5-6 6-4z" fill="#1C1F2A"/>
<path transform="translate(425,705)" d="m0 0h23l15 3 7 2 9 1 3 1 2-2 9 6 11 4 16 9 14 9 8 5 2 4 4 4-1 3-4 1 2 2-5 2-19 5-21 7-2-1 14-7 25-7 3-1v-2l-14-6-6-1 4-2-6-1 1-2-13-2-11-6-9-5-1-2 6 2 17 8 5 1v-3l-6-3-12-5-14-5 1 11v9l-2 6h-2l-2 5-6 8-6 4-8 5-13 4v1h-9l-6 1-8-1-10 3-5 2v-2l8-5v-4l-6-2-8-7-6-10-2-4v-13l1-7-12 6-17 8-8 4-7 4-6 1 5-5 16-10 13-8 8-4 4-1v-2l6-1v-2l10-4 14-5zm-1 4-6 2-15 8-5 5-3 7v12l5 10 6 7h2l1 3 7 4h10l8-3 10-4 14-4 3-2v-2h2l4-15-1 10-3 7 1 3 5-1 5-6 2-3 1-6v-15l-3-8-5-5-13-3-14-1z" fill="#1E354E"/>
<path transform="translate(325,841)" d="m0 0 5 2 9 9 5 6v2h2l4 6 1 4h2l3 5 5 13 2 10v18l-2-3-1 1-1 9 2 1h-2l1 6 1 4 1 3-5 1h-3l-4 11h-2l3-13 1-16-2-13-5-14-9-14-7-8-14-9-15-6-8-2h-21l-15 3-16 8-10 9-9 17-4 14-1 7-1 85h-2l-1-101 2-10 7-14 3-3h2l1 3 5-2 1-5-5 3-1-3 6-4v-2h3l2-4 7-2 1-2 4 1 6-4 16-3h7l3 1 9 2h7l11 4 3-1 11 4 3 1v2l4 1v2l4 2 1 3h3l1 3 5 4 2-1-1-5-5-5-2-4-5-6-2-1v-2h-2v-2h-2z" fill="#1D202C"/>
<path transform="translate(440,696)" d="m0 0 12 1 17 6 14 7-1 3-7-2-9-1-11-3-7-1h-23l-14 3-11 5-6 1v2l-6 1v2l-16 8-5 4-9 5-30 20-17 12-8 7h-2v2l-6 4-2 3-8 4-7 5-8 3-5 4-4 2-4-1-1-2h-5l-2-5 20-11 16-11 13-10 21-14 17-9 23-13 19-10 13-5 15-8 4-3 12-4z" fill="#1B2532"/>
<path transform="translate(596,956)" d="m0 0h3l7 11 8 11 7 10 4 5 2 1v2l4 2 5 8v7l-2 3h2l1 3v32l-2 8-3 1-1 3-4-1-1-3h2l1-2v-1l-2-5-2-1-2 5-3 1 2 5-4 1-1-1v-10l-5-6-3-19-2-16-2-9-3-4-3-15-1-9-1-1v-9l-2-2z" fill="#1E89C2"/>
<path transform="translate(711,913)" d="m0 0 7 1 6 2 1 1v7l-5 16-5 12-3 5-4 1-16-3-6-4-6-7-5-10-5-5-2-4 7-2v-2h2l2-5 5-2h17z" fill="#A92BC1"/>
<path transform="translate(667,1080)" d="m0 0h2v10l-3 21-3 8 3-2-1-2h2l1-4 2-1 2-4 1 3-1 9-5 10h-2l-2 7-6 7-2 1-1 3h-2l-2 4-3 3h-3l-2 4-7 7-15 8-9 1 2-3h2l-2-2h-3l-6 1-5-1-4 1-5-2-7 3h-8l-8 1-7 2h-13l-26-2-15-2-13-3-5-2 4-1 20 4 19 2h28l24-3 15-4 20-9 13-7 14-12 9-12 6-12 3-13 2-14z" fill="#1C202C"/>
<path transform="translate(481,720)" d="m0 0 19 7 7 3 7 4v3l-2 1-10-4-15-7 3 2 16 9 13 2 1 2-17 6-11 6-7 6h-2l-2 4-8 8-9 12h-2l-2 4-3 1v-2l-6 3-3 5-3 2-3-6 1-10-6 2-1 2h-2l-2 6-3 6h-2l3-10 3-4 1-3-9-3-10-2v-1l6-1 9 1 5-1h7v-1l8-2 10-4 8-6 5-5 5-8h2l1-6v-9l-1-11z" fill="#1E89C2"/>
<path transform="translate(305,1124)" d="m0 0 2 1 1 6-3 3 7-2 4 1v2l-6-1 3 5 11 2 1 11-5-5-3-2v3h2l2 6 6 2 2 7h2v-6h3l-1-2-5-1-2-4 1-4 5 2 7 5 8 4 6 7 7 5 4 7v4l5 2 2 2-2 1v2l-3 1v-3l-5 2-5-3-3-1-2-2-5-3-4-3v5l-5-4-1-5h2v-3h-3v3h-2l-2-3-3 1 1 3h-8v-3h2l-1-5-2-1v5l-4 1-1 3h-6l-4-2v-2h-5l-1 2-12-13-1-3v-2l-1-4 10 2 1-2h4l-5-8 4 2 6 8-2 2 10 12v2h4l-6-7 1-3h2l1-4-1-3-7-2v-3l-4-2-5-6-5-1v-4l4 1-2-6 8 2z" fill="#1E89C2"/>
<path transform="translate(461,1200)" d="m0 0 2 1 2 3-10 4-4 2-1 10 1 1 2 13 2 3v3l5 2 10 7 5 5v3h-3l-1 2-4-6-9-6v-2l-5-2-4-5-3-6v-2l-6-1v2l-8 2h-16l-22-5v-2l-6-1-5-3-3-4-12-5h-7l-10 3-3 9 2 9 4 6v2l3 1 2 4 6 5 3 1 2-4 2 1-2 4-1 6 4 1 6 4v2l4 2 2 4 8 6 11 6 8 3 11 2 5 3v1h-7l-1-1-11-2-17-7-5-3-4-1-17-11-16-12-14-8 4-1 5 3 14 8 8 7 7 4 3 1-3-3-3-1-5-6-5-4-7-8-8-13-2-5v-10l1-4h2v-3h2l2-4 8-5v2h7l9 3 11 8 2 1v2l7-1 5 3v2l9 2 5 1h16l9-3v-2l5-5 7-11 4-4z" fill="#1A4563"/>
<path transform="translate(369,735)" d="m0 0h2l1 4-2 2h-5v2l5-1h11l8-1v3l-11 3-15 2-11 4-4 3-9 4h-2l-1 4-8 4h-4l1 3 11-3 7-3 3 1-3 1v2l-12 7-9 6v2l-9 1-12 4-9 4-1 2 10-1-4 3-12 2-16 8-5 2h-5l1-4 14-9 16-11 3-1 5-5 3-1v-2l14-11 13-9 12-8 11-3 7-5 7-3z" fill="#1E88C0"/>
<path transform="translate(219,827)" d="m0 0 4 1-12 9-8 7-8 11-7 14-9 25-7 26-4 19-2 18-1 21h-1l-1-22-2-6 2-2 4-25 3-8v-9l2-9 2-5 1-10h-6l1-9h-4l-6 7-2 3h-2l-2 5-3 2-1-3 7-12 10-13 18-18 10-7 17-8z" fill="#1F95D1"/>
<path transform="translate(577,855)" d="m0 0 1 2 5-1 9 1 31 6 8 4 2 3 2 10-1 1v6l-6-1-3-3v-2l-19-4-16-2h-4l3 3h3l1 3h-29l-18-2v-1l6-2 3-2h4v-2l4-2 4-4 1 1 28 3 15 3 8 3 9 1h2v-2l-10-3-23-5-13-2-19-1v-4h-2l1-4z" fill="#1F8AC3"/>
<path transform="translate(570,775)" d="m0 0h5l-2 4-5 5-6 10-1 12v3h2l2-12 7-13 8-3 2 1-1 17-2 16-3 5-8 7-7 1-7-13-1-4v-21l3-6 7-6z" fill="#135786"/>
<path transform="translate(577,895)" d="m0 0h14l7 1h2 10l25 5v3l-5 1h-6l-1 1 16 2 5 4v3l4 2 4 6 1 3-6-2-5-4-3-3-17-1-26-4-1-1-2 7-5 1v-2l-3 1v-2l-4-2-1-2-2 1v-2l-2-2 3-2 8 1h3l-4-4v-2l2-1-10-2z" fill="#1E89C2"/>
<path transform="translate(249,1177)" d="m0 0 3 1 1 2 7 2v2h5v2l3 1v2l1 1h11l-2-5 4-1 2 2-1 5 4 2 2 3-1 3-4-4-6-2v2h2v2l3 1v3l15 5 5 4 3 2h-9l1 4 8-1 3 3 8 5v2l6 1v-2h6l2 3-2 1-2-1 1 5-2 1-4-4-3-1 2 4 5 2 1 3-5-2-3-1v-2l-4 2-1-4-14-8-11-7-10-6-4-4-8-3v-5l-4-1v2l-5-2-9-4-9-6-5-2v-1h5v-2l8 2 5 1-4-4z" fill="#1F92CD"/>
<path transform="translate(274,908)" d="m0 0 1 3 2 2-1 6 5-3 4-4 4 1 6 7v15l1 3-3 3-8 3-9-1-9-6-2-5-1-4-2 3-3-1-1-6 2-10 3-1v2l7-4 1-2z" fill="#1B2C3D"/>
<path transform="translate(583,810)" d="m0 0h12l24 6 10 9 5 7v2l5 2 5 3h5l2-2 6 1 8 6-1 6-2 2h-14l-4-2v-2l-4-2-10-7-8-7-12-6-20-7-10-4 1-4z" fill="#145481"/>
<path transform="translate(596,956)" d="m0 0h3l7 11 8 11 7 10 4 5 2 1v2l4 2 5 8v7l-2 3h2l1 3v32l-2 8-3 1-1 3-4-1-1-3h2l1-2v-1l-2-5-2-1-2 5-3 1 2 5-4 1-1-1v-10l-5-6-3-19v-6l6 1v-4h2v2l3 1v12l-1 3 3 1-3 3-1 5 2 4 3 3 3-3 4 1 2 4v3h3v-36l-2-3v-7l-2-5v-3l-5-1-5-9-2-5-4 2-4-1-3-1-1-2h-4v12h-1l-3-15-1-9-1-1v-9l-2-2z" fill="#135685"/>
<path transform="translate(467,710)" d="m0 0h9l6 2 2-2 9 6 11 4 16 9 14 9 8 5 2 4 4 4-1 3-4 1 2 2-5 2-19 5-21 7-2-1 14-7 25-7 3-1v-2l-14-6-6-1 4-2-6-1 1-2-13-2-11-6-9-5-1-2 6 2 17 8 5 1v-3l-6-3-12-5 2-2-14-6-16-7z" fill="#135786"/>
<path transform="translate(300,801)" d="m0 0 10 1 11 3 15 2 4 3 8-1 2 1h15l8 3-4 2-8-2-2 4 1 2h-15l-5-1-9-1-57-1v-2l-3-1 4-2 10-1 5-1 1 1h7l5 2 2-1 2 1v-2l-4-2-5-1 3-4z" fill="#1F94D0"/>
<path transform="translate(576,842)" d="m0 0h23l15 4v1h-18l-5-1h-18l-4 2-3 4h-2v6l-1 2h2v4l4-1 15 1 22 4 21 5 5 5-3 1-4-2h-7l-7-3-15-3-28-3h-3l-4 4-10 3-19 2-7 2-4-2h2v-2l16-6 13-4 4-2 6-11 5-6z" fill="#1A2C3D"/>
<path transform="translate(300,788)" d="m0 0 2 1v2l9-1 7-1v2l-5 2v2l-6 3h-4l26 6 21 3 6 1 1 3h-7l-5-1v1h-5l-4-3-15-2-16-4-4 2-2 3h5l3 3v2l-5 1-6-2h-5l-2-1-8 1-2-1-1 2-6 1 2 2h-7l-9-2-1-1h-7l3-3 6-2v2l10-3 16-8 12-2h-3l-4-1 4-4z" fill="#1F92CD"/>
<path transform="translate(348,950)" d="m0 0 1 3-2 7-3 5-1 3-8 7-9 6-4 4 1 2-5 2-3 2-22 6-8 2-4 2h-14l-5 3-2 3-2 7v59l-1 22 1 7-2 13h-1l-1-114 1-7 1-1 10 1 5 1h16l15-4 16-8 9-6 8-7 10-16z" fill="#1B1F29"/>
<path transform="translate(440,696)" d="m0 0 12 1 17 6 14 7-1 3-7-2-9-1-11-3-7-1h-23l-14 3-11 5-6 1v2l-6 1v2l-4 1v-2h2l-1-2-3-1 21-10 7-5 12-4z" fill="#1C2431"/>
<path transform="translate(359,727)" d="m0 0 2 1-3 3-5 3-5 5-13 9-7 5h-3v2l-15 10-5 4-5 3-8 7h-2l-1 3h-2l-1 2-5 1-2 3-9 1-1-2 1-4 15-10 13-10 21-14 17-9z" fill="#1D2F42"/>
<path transform="translate(347,1216)" d="m0 0 2 1-1 7 2 10 4 6v2l3 1 2 4 6 5 3 1 2-4 2 1-2 4-1 6 4 1 6 4v2l4 2 2 4 8 6 11 6 8 3 11 2 5 3v1h-7l-1-1-11-2-17-7-5-3-4-1-17-11-16-12-14-8 4-1 5 3 14 8 8 7 7 4 3 1-3-3-3-1-5-6-5-4-7-8-8-13-2-5v-10l1-4z" fill="#1E283A"/>
<path transform="translate(453,1108)" d="m0 0h6l5 5 12 3 18 5 9 2 8 2-1 2 5 1v2h5l1-1h7v2l4 1 4 2-4 1-28-4-20-5-28-11-3-2-5 1-9 4-7 6-3 3-2 1-10-1-2-1v-2l-4-1-2-2 9 1h9l11-9 6-3z" fill="#1F2333"/>
<path transform="translate(446,802)" d="m0 0 1 4-1 4v2l3 1h-2v2l3 1-6 12-2 10-3 5-3 1-2 5-2 1-1-6v-8l7-15 4-9v-3l-4 6-3 9-8 11-4 1 1-16 3-5 9-7 7-5z" fill="#1E89C2"/>
<path transform="translate(626,1193)" d="m0 0 3 1-9 5-11 5-2-1 10-5h-15l-19 2-41 1-16 1-2 1h-11l-3-1v3l-8 2-5-2h-15l-5 1-4-1v-2l-8 1 3-2 14-3h14l1-3 20 1 7 1h21l38-1 37-3z" fill="#1F8AC3"/>
<path transform="translate(493,902)" d="m0 0 1 2h2v3l6 1-1 3 2 2-3 2-17 5-11 4-2 2h-3l-3-7v-13h16z" fill="#1F8AC3"/>
<path transform="translate(125,927)" d="m0 0h1l-1 31-1 23h1l1 45 2 30 5 27 4 16 5 12 1 5-4-4-5-13-4-15-5-27-2-19-1-20-1-57-2-2-2-7v-24h1l1 23 2-4z" fill="#218BC3"/>
<path transform="translate(517,887)" d="m0 0 28 2 8 2 11 1 1 2 5-2 1 1 10 1-4 1 1 3 15 3v1h-7v2l3 1 3 5-18-9-7-1-21-2-15-3-13-3h-12l5-4z" fill="#135685"/>
<path transform="translate(579,781)" d="m0 0 3 1-1 17-2 16-2 4h-5l-1-2-3-1v-2l-4 1v-13l2-7 6-11z" fill="#135989"/>
<path transform="translate(387,1280)" d="m0 0 12 6 13 5 8 1 1 1h6l-2-2 18 1h13l-2 2 1 6-7 2h-19l-23-6-10-6-10-8z" fill="#1C3147"/>
<path transform="translate(249,1177)" d="m0 0 3 1 1 2 7 2v2h5v2l3 1v2l1 1h11l-2-5 4-1 2 2-1 5 4 2 2 3-1 3-4-4-6-2v2h2v2l3 1v3l6 2v2l-5-2-7-4-4-1v-2l-2 1v3l-4 2v-5l-4-1v2l-5-2-9-4-9-6-5-2v-1h5v-2l8 2 5 1-4-4z" fill="#1E86BE"/>
<path transform="translate(554,774)" d="m0 0h7l2 2-6 6-3 8v21l4 10 3 5v2l9-3 7-7 2-11h1l1 7 12 5 20 7 9 5 4 4-6-2-24-10-9-3h-7l-9 8-10 3-7-8-5-11-1-3v-17l3-13z" fill="#1B2C3D"/>
<path transform="translate(224,869)" d="m0 0h2l1 3 5-2-2 4-9 17-4 14-1 7-1 85h-2l-1-101 2-10 7-14z" fill="#1B1F29"/>
<path transform="translate(602,787)" d="m0 0 9 3 15 6 19 10 21 12 5 2 3 3 8 5v2l5 2 10 8 6 7 7 6 2 5 6 8 1 6h2l2 4v6h-2l-5-12-7-10-8-10-14-14-10-7-15-9-18-10-42-21z" fill="#1B202C"/>
<path transform="translate(627,899)" d="m0 0 9 1 5 3v3h2v2h2v2h2v2l3 1 6 12-1 4h-2l2 6-6-2-4-4v-2h-4l-2-3-6-2v-2l-18-2-6 1 1-2h4v-2l-8 2-2-1h-10v-6l7 2 21 3 17 1 5 5 5 2 4 3-7-10-2-1v-3l-4-2-6-2-11-1-1-2 2-1h7l4-2-8-2z" fill="#135685"/>
<path transform="translate(474,748)" d="m0 0 2 1-1 5-5 6-6 4-8 5-13 4v1h-9l-6 1-8-1-10 3-5 2v-2l8-5v-3l4 2h7l7-4 21-7 6-1v-2l9-1 5-4z" fill="#1C3B56"/>
<path transform="translate(571,1222)" d="m0 0 1 2-13 8-10 7-14 9h-3l-8 1 2-6 8-2 4 1 1-1-5-1v-2l-7 1-4 3-8 3-5 3h-3v-2l16-8 6-4 4 1 8-4 24-8z" fill="#1F92CE"/>
<path transform="translate(396,724)" d="m0 0 1 3-1 4v12l5 10 5 6 8 6 2 1h10l8-3 10-4 14-4 3-3h2l2-12 2-6h1v9l-5 13-5 1v2l-14 5-13 4-7 4h-7l-6-4-7-4-7-8-6-11v-13l1-4h2z" fill="#1B2839"/>
<path transform="translate(694,895)" d="m0 0 7 2 5 7v3l3 1-4 2 6 2v2l-18 1h-9l-6 3h-2v2l-4 3h-2l2-5 12-7 6-1v-2l-10 1-5-2-2-4 4-2h12l2 3 4-1v-2l-3-1-1-4z" fill="#9724B0"/>
<path transform="translate(295,1140)" d="m0 0 4 2 6 8-2 2 10 12v2h4l2-2 1 4-4 1-1 3h-6l-4-2v-2h-5l-1 2-12-13-1-3v-2l-1-4 10 2 1-2h4z" fill="#1E88C1"/>
<path transform="translate(540,1248)" d="m0 0 3 1 1 4-19 11-16 10-12 7-13 5-1-3 4-4h4l3-3 4-2 4-4 6-3 1-4 14-9h2l1 2z" fill="#1B4E6F"/>
<path transform="translate(346,818)" d="m0 0h11l25 4 2 1-1 8-2 3-5-8-4-2 1 7 7 6 1 4 2 1-6 1-12-10-12-7-11-3v-1h6l2 1v-4z" fill="#1A364D"/>
<path transform="translate(303,1124)" d="m0 0 2 1-1 4-6-1h-2l1 4-4-1v4h5l7 8 2 1 1 3 6 1 3 5-2 1-1 3h-2l2 5 4 4-2 1-3-1-8-10-3-5 2-2-7-8 2 4 1 3-4 2-4 1-7-3 3 6v3l1 2-3-1-2-5-3-1v-2h3l-1-5h3v-2l7 1-1-3h2l-3-6v-6l2-4h7z" fill="#135685"/>
<path transform="translate(140,908)" d="m0 0 1 2 2 1-1 4-3 9-2 9-2 5-3 13-1 1-1 11-1 2-1 21-1 4 2 5-1 8v40l-2-3-1-14v-59l4-24 7-24z" fill="#1F92CD"/>
<path transform="translate(245,1190)" d="m0 0 10 3 8 5-1-3 5 2v5l6 1 6 4v2l5 2 5 3 19 12 7 4 1 4 12 6 3 2v3l-5-2-14-8-15-10-16-10-17-12-16-9-3-3z" fill="#183E5B"/>
<path transform="translate(566,866)" d="m0 0 2 1 21 2v1l-9 1 6 2 2 4 4 1 1 3h-29l-18-2v-1l6-2 3-2h4v-2l4-2z" fill="#1E87BF"/>
<path transform="translate(516,988)" d="m0 0h6l5 5-2 1 5 2 5 5 1 5-2 1-5-7-6 2-3-2h-8l-1 1-13 1-1 2-4 5-2 5-2 8-6 3-1-10 1-4h2l1-2 2 1 1-5 8-7 5-1 4-2 13-2-1-3z" fill="#1B2B3C"/>
<path transform="translate(602,1197)" d="m0 0h16l-1 2-17 8-8 4-8 5-7 3-4-1 9-4-3-2 2-3 5 1 4-4-1-1-6-1-8-1-1-1h-19l-13-1v-1l41-1z" fill="#1F8AC3"/>
<path transform="translate(596,956)" d="m0 0h3l7 11 8 11 7 10-1 2-1-3-4 2-4-1-3-1-1-2h-4v12h-1l-3-15-1-9-1-1v-9l-2-2z" fill="#135786"/>
<path transform="translate(285,1180)" d="m0 0 13 1 8 4 2 3-1 2 5 1 3 1 2 3 7 1 1 2-2 3-3-1v-2h-5l-7-2-2 2 5 4-1-3 4 1 3 9 5 2v1h-6l-9-7-4-5-4-3v-2l4 1 1-4-5-1-8-3-7-7z" fill="#1D84BB"/>
<path transform="translate(532,775)" d="m0 0h2v2l-14 7-10 8-13 13-9 11-10 14-8 14-8 12h-1l1-7 11-18 7-11 11-13 6-5 3-6 2-6 2-2h4v-2l7-3 12-6z" fill="#1B1F29"/>
<path transform="translate(336,1227)" d="m0 0 5 2-1 4 4 1 1-3 6 12 6 8 4 4v2l3 1v2l4 2 3 3v2l4 1 4 5-5-2-7-4-8-7-14-8-4-2 3-1-4-3v-3h-2v-2l4-1-2-1v-3l-5-3v-5z" fill="#1E89C2"/>
<path transform="translate(562,859)" d="m0 0 3 1v4l4-1 15 1 22 4 21 5 5 5-3 1-4-2h-7l-7-3-15-3-28-3h-3l-2 3-2-1v-1l-10 1v-2l5-3 5-1z" fill="#183A56"/>
<path transform="translate(513,743)" d="m0 0h11l1 2-18 5-15 8-13 12-15 16-7 8-11 9-8 4-3 2 2-5 13-9 11-9 1-2h2l2-4 9-11 12-12 8-6z" fill="#19364E"/>
<path transform="translate(305,1124)" d="m0 0 2 1 1 6-3 3 7-2 4 1v2l-6-1 3 5 11 2 1 11-5-5-3-2v3h2v4h-3l-4-4-5-1v-3l-4-2-5-6-5-1v-4l4 1-2-6 8 2z" fill="#1F8BC5"/>
<path transform="translate(573,845)" d="m0 0 11 1 1 4 15 5 15 3 1 3 5 1-3 1-26-5-9-1h-5l-1-1h-13v-4l5-5z" fill="#1A3045"/>
<path transform="translate(392,1166)" d="m0 0 11 6 11 7 3 3 14 7v3l-2 2 6 1 1 4-5-1-4-2-7-2v-2l-8 1 1-3 3 1-8-8-9-7-3-2v-2l-4-2-1-3z" fill="#1E89C2"/>
<path transform="translate(127,1043)" d="m0 0h2l2 17 3 21 3 10 2 5v3l6 16 7 12 6 8 2 5 5 5 7 6 4 2-5 1-12-11-11-15-6-12-1-5-5-12-6-25-3-18z" fill="#1F8FC9"/>
<path transform="translate(425,705)" d="m0 0h23l15 3v1l-14-1h-25l-9 3-12 5-5 3-10 4-27 14-4 2 1-3 20-12 6-3 4-1v-2l6-1v-2l10-4 14-5z" fill="#3E99CF"/>
<path transform="translate(441,1024)" d="m0 0h1l4 16 7 14 9 12 2 4 4 2 9 6 16 5 6 1h20v2l-2 1-19 1-17-4-6-4h-2l-5-5-5-3-5-5-5-4-5-10-3-9-5-12v-7z" fill="#1C1F2A"/>
<path transform="translate(269,784)" d="m0 0 2 1-1 3 7-1 2 6-10 5-8 5-4-1-1-2h-5l-2-5z" fill="#1B202A"/>
<path transform="translate(392,724)" d="m0 0 1 4-2 16-4-2-6 1h-16v-2l6-2v-5l20-9z" fill="#1F92CE"/>
<path transform="translate(279,900)" d="m0 0 13 1 3 2v2l4 2 5 8 1 7 2 2v6l-2 2-3-7 1-3h-2v-3h-2l-2-5-1-2h-2l-2-3-4-2-11-1-5 1-4 1-4-1 2-5 4-1z" fill="#1B2C3D"/>
<path transform="translate(446,802)" d="m0 0 1 4-2 5-2-3-5 7-3 9-8 11-4 1 1-16 3-5 9-7 7-5z" fill="#1F8AC3"/>
<path transform="translate(213,1041)" d="m0 0h1l2 85 4 8v2l4 2 6 2h10l8-4 3-5 3-14h1v13l-3 6-11 7h-12l-8-4-7-8-1-4-1-85z" fill="#1C212E"/>
<path transform="translate(347,1216)" d="m0 0 2 1-1 7 2 10 4 6v2l3 1 2 4 6 5 3 1 2-4 2 1-2 4-1 6 4 1 1 2-1 4h-2l-5-6-5-4-7-8-8-13-2-5v-10l1-4z" fill="#1C2D3F"/>
<path transform="translate(570,775)" d="m0 0h5l-2 4-5 5-6 10-3 7-3 1 1 6-3 2-1-6v-14l3-6 7-6z" fill="#145C8D"/>
<path transform="translate(711,913)" d="m0 0 7 1 6 2 1 1v7l-5 16-5 12-3 5-4 1-16-3-2-2 21 3 2-5 3-7-2-1h2l1-4 2-3 3-12 1-5-3 1v-2l-4 1-18-1-7-1h-12l2-2 3-1h17z" fill="#9E24B6"/>
<path transform="translate(536,904)" d="m0 0 11 1 7 2h5l2 2v7l-1 4h2v5l-12-2-6-2 1-7-2-2h8l2 1h4l-3-3-7-2-1 2-6-2h-3z" fill="#135685"/>
<path transform="translate(358,1205)" d="m0 0 1 2h7l9 3 11 8 2 1v2l8 2 1 3 2 1-9-1-6-3-4-5-12-5h-7l-10 3-2 5h-2l1-4-1-3h2l2-4z" fill="#1C3B57"/>
<path transform="translate(535,899)" d="m0 0h18l3 3 3-1v2l7-1 2-2h6l2 1-1 4-3 1v3h-2l4 5v1h-6l-1-2-2-1-1-4-11-2-14-1v-2h-3z" fill="#1F94D0"/>
<path transform="translate(165,1028)" d="m0 0h1l4 29 8 46 3 19 1 2v8l-1 4 1 1v5l-3-2 1 5v3l-3-2-2-12 4-2 1-7-3-3-1-10-1-13-6-32-4-29z" fill="#135685"/>
<path transform="translate(348,950)" d="m0 0 1 3-2 7-3 5-1 3-8 7-9 6-4 4 1 2-5 2-3 2-22 6h-6l1-2 16-5 16-8 11-8 7-8 9-15z" fill="#1C1F2A"/>
<path transform="translate(551,884)" d="m0 0h16l7 2 33 1 6 2 5 2v2l-13-1-4-2-4 1h-18l-11-2-13-1-4-1z" fill="#135584"/>
<path transform="translate(626,1193)" d="m0 0 3 1-9 5-11 5-2-1 10-5h-15l-19 2-50 1h-15l1-3h26l38-1 37-3z" fill="#135685"/>
<path transform="translate(488,1163)" d="m0 0 9 1 23 4 11 1h28l32-4-2 3-6 2h-8l-8 1-7 2h-13l-26-2-15-2-13-3-5-2z" fill="#1B1F29"/>
<path transform="translate(615,1017)" d="m0 0h2v2l3 1v12l-1 3 3 1-3 3-1 4-3 4h-2l-2-9-2-12v-6l6 1z" fill="#145A8A"/>
<path transform="translate(639,837)" d="m0 0 5 2h5l2-2 6 1 8 6-1 6-2 2h-14l-4-2v-2l-4-2-1-2h3l1 2 12 3-4-6-6 2-4-3z" fill="#1A2C3D"/>
<path transform="translate(313,782)" d="m0 0h5l-2 2-15 5-9 4-1 2 10-1-4 3-12 2-16 8-5 2h-5v-2l16-8 8-5 8-4 11-4h3v-2z" fill="#183852"/>
<path transform="translate(292,800)" d="m0 0 4 1v2l7-1-4 5h5l3 3v2l-5 1-6-2h-5l-2-1-8 1-2-1-1 2h-6v-4l10-4 6-2h4z" fill="#1F8AC3"/>
<path transform="translate(641,1143)" d="m0 0 4 2 4 1 3 2-5 5h-3l-2 4-7 7-3 1v-2h2l-1-2-4-2 4-6v-5l4-4z" fill="#1B3347"/>
<path transform="translate(457,793)" d="m0 0m-1 1m-1 1 6 2-1 11-3 3-7 4h-3l-2-5 2-9z" fill="#1F92CE"/>
<path transform="translate(170,1074)" d="m0 0 2 4 4 22 1 17 2 6 2 2-1 7-4 3 2 11 2 3-4-2-2-5-1-7-1-4h-2v-6l4 1v2h4v-2l-4-4-2-9 2-2v-7l-3-17z" fill="#1F8AC3"/>
<path transform="translate(394,719)" d="m0 0 4 1-4 4-14 7-17 8-8 4-7 4-6 1 5-5 8-5 4-1 17-9 16-8z" fill="#14527D"/>
<path transform="translate(459,700)" d="m0 0 10 3 14 7-1 3-7-2-9-1-11-3-7-1-23-1v-1l11-1 19 1z" fill="#1B2F42"/>
<path transform="translate(352,1163)" d="m0 0 4 1 8 6 1 7 4 1-1-4 2-1 3 1v-2h3l-3-9 3 3 5 9h-3l1 14h-2l-2-5-6-1-5-3-3-8-5-5z" fill="#13527F"/>
<path transform="translate(672,866)" d="m0 0 10 2 4 6 1 7-1 1h-6l-8-5-1-1v-9z" fill="#9E24B6"/>
<path transform="translate(415,1130)" d="m0 0 5 1 10 7 22 11 19 8 6 2v2l-9-1-7-3-9-4-8-3v-2l-4-1-7-4-9-5-9-7z" fill="#212031"/>
<path transform="translate(656,1027)" d="m0 0 7 6v16l-4 9-2-2-2-8v-19z" fill="#1F8AC3"/>
<path transform="translate(509,885)" d="m0 0 3 1-4 5h-2v2l-7 4-11 7-8 3h-9v-2l-6-2-1-3 7 1h11l10-4 11-7z" fill="#1A2737"/>
<path transform="translate(453,900)" d="m0 0 5 5 5 9 2 19-5 1-1-6-4-12-3-15z" fill="#1E8AC3"/>
<path transform="translate(542,1072)" d="m0 0 2 1 3 17 2 6 5 2v1h-5l-1-4h-2l-4-5-5-6-4-1h-5l-1 2h-7l1-2 12-4 6-4z" fill="#1D1F2C"/>
<path transform="translate(579,870)" d="m0 0h17l15 3 8 3 4 1v3l-9-1-8-2-16-2-10-3z" fill="#1F8AC3"/>
<path transform="translate(299,1140)" d="m0 0 5 2 3 2 1 3 6 1 3 5-2 1-1 3h-2l2 5 4 4-2 1-3-1-8-10-3-5 2-2-5-5z" fill="#144C75"/>
<path transform="translate(540,1248)" d="m0 0 3 1 1 4-19 11-4 3h-2v-2l-6 1 1-3 8-3 4-4z" fill="#155783"/>
<path transform="translate(369,1197)" d="m0 0h3l1 3-2 2h5l1 6-6-2-8-2-10 5-4 5-4-1-4 1 1-4h4l1-3-2-2 2-1h5l4 1 1-2-3-1 2-3 12 1z" fill="#1F8AC3"/>
<path transform="translate(541,774)" d="m0 0h12l-1 5-3 13-1 15h-1v-25l-1-2 2-1h-3l-5 1h-5l-2 1-6 1-7 4-2-1 9-6z" fill="#962AB6"/>
<path transform="translate(125,927)" d="m0 0h1l-1 31-1 15h-2l-1-12-2-2-2-7v-24h1l1 23 2-4z" fill="#2D7EC1"/>
<path transform="translate(633,908)" d="m0 0h6l5 4v3l4 2 4 6 1 3-6-2-5-4-3-3h-5v-4l-1 1v1h-9l1-3 5-2h3z" fill="#1F8BC5"/>
<path transform="translate(576,842)" d="m0 0h23l15 4v1h-18l-5-1h-18l-4 2-3 4h-2v4l-3 1 1-5 5-6z" fill="#1B202B"/>
<path transform="translate(467,734)" d="m0 0h1v9l-5 13-5 1v2l-14 5-13 4-4 1v-4l10-3 7-3 14-4 3-3h2l2-12z" fill="#1C2F42"/>
<path transform="translate(518,746)" d="m0 0h8l14 6v4l-9 3-3-1h2l-3-3v-2l-5 1-3-2z" fill="#1F8AC3"/>
<path transform="translate(391,1208)" d="m0 0h2v2h3l2 5 7 1v6 4l-5-1-1-2-4-2h-7l4-4-3-1v-2h-4l-1-3 4-1v2h3z" fill="#1C7DB4"/>
<path transform="translate(566,874)" d="m0 0 8 2 9-1h3l3 3h3l1 3h-29l-11-1v-1h10v-3z" fill="#135786"/>
<path transform="translate(532,775)" d="m0 0h2v2l-14 7-10 8-12 12-1-2 3-6 2-6 2-2h4v-2l7-3 12-6z" fill="#1A222F"/>
<path transform="translate(125,1043)" d="m0 0h1l6 36 5 20 5 12 1 5-4-4-5-13-4-15-5-27z" fill="#165078"/>
<path transform="translate(531,822)" d="m0 0 7 1 5 3 7 6-2 1v2l-5 1h-8l-2-6-1-5z" fill="#2176AA"/>
<path transform="translate(479,766)" d="m0 0 2 2-7 7-7 8-12 13-9 7-8 4-3 2 2-5 13-9 11-9 1-2h2l2-4 9-11z" fill="#183953"/>
<path transform="translate(506,900)" d="m0 0 5 2 6 1 7 3v2l-19 1-2 3-3-1v-3l-4-1v-4l8-1z" fill="#1F94CF"/>
<path transform="translate(557,872)" d="m0 0h2v2l-7 3v3l-21 2-4 1h-8l1-3 12-4 19-2z" fill="#135685"/>
<path transform="translate(391,1220)" d="m0 0 5 1 4 2v2l9 2 5 1h18l-3 3 3 2h-16l-22-5 3-2-3-3-4-2z" fill="#1D466A"/>
<path transform="translate(568,892)" d="m0 0 13 2-4 1 1 3 15 3v1h-7v2l3 1 3 5-18-9-9-2v-2l-3-1 3-1z" fill="#19364F"/>
<path transform="translate(336,1248)" d="m0 0 5 1 13 7 9 6 4 4 7 4 4 2h3l4 7-1 2-9-6-13-9-14-10-12-7z" fill="#193D58"/>
<path transform="translate(171,913)" d="m0 0h2l-1 7-4 19-2 18-1 21h-1l-1-22-2-6 2-2 4-25z" fill="#1F91CC"/>
<path transform="translate(582,1010)" d="m0 0 2 1-1 8 3 1-1 44-2 1-1-4z" fill="#1B202B"/>
<path transform="translate(452,898)" d="m0 0 12 3 7 4-1 2-6-1 1 13 2 7 3 1-4 2-1 4-1-1-2-18-8-13h-2z" fill="#135483"/>
<path transform="translate(304,799)" d="m0 0 16 3 9 2 21 3 6 1 1 3h-7l-5-1v1h-5l-4-3-15-2-16-4-3-2z" fill="#1E86BF"/>
<path transform="translate(874,1154)" d="m0 0 3 1-4 4h-3l-2 4-2 2-2 9v9l1 14-3-4-2-6v-14l4-11 8-7z" fill="#E2BA20"/>
<path transform="translate(299,1221)" d="m0 0 8 4 8 5 1 4 12 6 3 2v3l-5-2-14-8-15-10 2-1z" fill="#155987"/>
<path transform="translate(586,1214)" d="m0 0 2 1-7 4h-2v2l-10 6-2-1 5-2-1-1-16 4-17 6-5 3-3-1 14-7 9-4 13-4 14-3z" fill="#135685"/>
<path transform="translate(290,1205)" d="m0 0h7l6 5 3 2h-9l1 4 8-1 3 3 6 4 1 3-4-1v-2l-7-2-6-2-4-3-8-3-5-5 4 1 6 4h4l-2-3-4-2z" fill="#1E89C2"/>
<path transform="translate(445,1194)" d="m0 0 28 1-4 3-12 5-4 1-1 2-1-4-2-1v-4z" fill="#1F8AC3"/>
<path transform="translate(779,964)" d="m0 0 1 3-5 8-4 7-5 7-4-2-9 9v-3l10-11 3-5 8-7z" fill="#2F4F81"/>
<path transform="translate(626,1110)" d="m0 0 2 1-9 6-20 9-8 3h-6l2-3 6-2 4-1 4-3h5l1-3 4 1v-2l4-4 10-1z" fill="#1E202E"/>
<path transform="translate(300,788)" d="m0 0 2 1v2l9-1 7-1v2l-5 2v2l-6 3h-9l-1-2h-3l-4-1 4-4z" fill="#1E86BE"/>
<path transform="translate(579,807)" d="m0 0h1l1 7 12 5 20 7 9 5 4 4-6-2-24-10-9-3h-8l-1-5z" fill="#1B2B3C"/>
<path transform="translate(474,716)" d="m0 0 3 2v2h2l3 12v9l-2 6h-2l-1 3-2-1 1-8v-15z" fill="#19344C"/>
<path transform="translate(395,753)" d="m0 0 4 4 5 6 7 4 3 3-2 4-5 3h-2v2l2 1-4-1 1-4-4-11-5-9z" fill="#1E87BF"/>
<path transform="translate(459,758)" d="m0 0h2l-1 4-13 6-11 2h-5v-3l21-7z" fill="#C3CBD7"/>
<path transform="translate(467,710)" d="m0 0h9l6 2 2-2 9 6 4 1-1 5-5-1-18-7-6-3z" fill="#156091"/>
<path transform="translate(143,1116)" d="m0 0h3l6 11 6 8 2 5 5 5 7 6 4 2-5 1-12-11-11-15-5-9z" fill="#2085BD"/>
<path transform="translate(307,1125)" d="m0 0 6 1v3h5l1 1v7l4 2 1 2-11-1-3-3v-3l6 1v-2l-11 1 1-3h2z" fill="#13527F"/>
<path transform="translate(654,1024)" d="m0 0 4 2 6 6v20l-2 1-3 12-2 1-3-17-1-24zm2 3-1 6v15l3 10 2-2 3-7v-16z" fill="#135685"/>
<path transform="translate(424,707)" d="m0 0h9v1l9 1v1h-18l-6 2-15 8-4 2-2 4h-2l-2 2 1-5h2l2-5 14-7 7-3z" fill="#1E405D"/>
<path transform="translate(125,990)" d="m0 0 3 1 1 4-1 8v40l-2-3-1-14z" fill="#1F95D1"/>
<path transform="translate(491,1030)" d="m0 0 4 1 2 3 5-1v2h2v2h7l3 2-5 3h-5l-1 2-7-2v-3l-4-2v-3z" fill="#1B2B3C"/>
<path transform="translate(437,1191)" d="m0 0 13 1 26 1 13 1 4 2-4 1-20 1 2-2-19-1-15-3z" fill="#135887"/>
<path transform="translate(360,888)" d="m0 0 2 4 1 6v9l-3-2v-4h-2l1 8-2 2-4-4 1-11 1-2h3z" fill="#1B3246"/>
<path transform="translate(328,1204)" d="m0 0h3v2l4 1-1 5 4 1 2 4v4l-3 2-10-2-2-4 6 2v-3-5l-4-1z" fill="#1F8AC3"/>
<path transform="translate(324,1141)" d="m0 0 5 5-2 1 1 6 6 2v2h-3l1 6h-4l-1-7-6-1-2-7h-2v-3l4 2 3 3-1-7z" fill="#144E78"/>
<path transform="translate(309,1138)" d="m0 0 15 3 1 11-5-5-3-2v3h2v4h-3l-6-7z" fill="#1E8BC4"/>
<path transform="translate(373,1162)" d="m0 0 5 2 1 3 5 2 5 3 2 2-7-1 1 3-3 1v5l-1 1-1 7-4 1-1-3 2-3v4h2l-1-5v-9l2-1-5-8z" fill="#1F8AC3"/>
<path transform="translate(372,821)" d="m0 0 10 1 2 1-1 8-2 3-5-8-4-2 1 8-4-1-6-5 1-2 5 1h1z" fill="#13517D"/>
<path transform="translate(271,1196)" d="m0 0h2v2l5 1 11 6v-2l3 1-2 1 1 2 4 2-4 1-5-3-1-2-3-1v2h-2l1 3h-2l-4-4-7-3z" fill="#1F8AC3"/>
<path transform="translate(497,1196)" d="m0 0 20 1v2h-3l2 2h-41v-1l11-1h10z" fill="#135988"/>
<path transform="translate(476,1078)" d="m0 0 17 5 6 1h20v2l-2 1-19 1-17-4-5-3z" fill="#1F1F2E"/>
<path transform="translate(271,805)" d="m0 0 4 1-3 3v4l2 2h-7l-9-2-1-1h-7l3-3 6-2v2l10-3z" fill="#1F92CD"/>
<path transform="translate(370,1209)" d="m0 0 5 1 11 8 2 1v2l8 2 1 3 2 1-9-1-6-3-4-5-12-5 3-2-1-1z" fill="#1B4465"/>
<path transform="translate(348,950)" d="m0 0 1 3-2 7-3 5-1 3-8 7-7 5-2-1 5-5 7-8 9-15z" fill="#1E1F2D"/>
<path transform="translate(531,767)" d="m0 0 2 2-16 9-9 6-4-1 4-5 17-10z" fill="#1A2635"/>
<path transform="translate(394,715)" d="m0 0h2l-2 5-15 8-22 11 1-3 20-12 6-3 4-1v-2l6-1z" fill="#1D82BA"/>
<path transform="translate(565,806)" d="m0 0 5 1 3 2-1 5h2v-2l4-2 1 5-2 4h-5l-1-2-3-1v-2l-4 1v-8z" fill="#1E86BE"/>
<path transform="translate(375,768)" d="m0 0 9 1 5 3v2l4 2 6 6v2l-4-2-9-8-5-2h-14l-11 4-2-1 5-4 6-2z" fill="#173F5D"/>
<path transform="translate(960,950)" d="m0 0 5 5 3 6v12l-6 8-7 3h-10v-1l12-3 7-5 1-4v-9l-3-6v-2l-3-1z" fill="#E2BA20"/>
<path transform="translate(340,959)" d="m0 0 1 3-6 9-10 9-5 3-3-1 4-2-1-3 4-3 5-5 6-3 4-6z" fill="#E2B620"/>
<path transform="translate(531,906)" d="m0 0 9 1 6 2 5-1 5 2 1 3-5 1-1-1-17-1-5-1z" fill="#1F8AC3"/>
<path transform="translate(239,1184)" d="m0 0 9 3 12 6v-2h2l-2-4 4 1 2 4 3 2-1 2h-5v2l-5-2-9-4-9-6z" fill="#1F8DC7"/>
<path transform="translate(295,1140)" d="m0 0 4 2 6 8-2 2 6 7v3l-5-1v-4l-4-1-4-2v-2l-2-1 2-3h4z" fill="#1E87BF"/>
<path transform="translate(616,859)" d="m0 0h9l8 4 3 3v11l-1-2h-2l-2-7-12-6-3-1z" fill="#1A2431"/>
<path transform="translate(372,824)" d="m0 0 5 2 4 7 2-5 1 4 2 1-3 8h-2l-1-4-4-2-4-4-1-5z" fill="#208CC6"/>
<path transform="translate(597,812)" d="m0 0 12 1 10 3 10 9v2h-2v-2l-30-12z" fill="#1B2C3D"/>
<path transform="translate(557,880)" d="m0 0 19 1 1 3 3-1 1 2h-6l-4 1-15-2-8-1v-2z" fill="#1B2837"/>
<path transform="translate(467,743)" d="m0 0h8l-1 7-5 6-6 1 1-7z" fill="#EFF0F3"/>
<path transform="translate(763,925)" d="m0 0h11l6 3 6 7 2 5 1 9v3l-4 6-1-2 1-3v-13l-4-8-6-4h-18l3-2z" fill="#2C83C2"/>
<path transform="translate(313,782)" d="m0 0h5l-2 2-15 5-9 4-1 2 10-1-4 3-7 1h-5l2-4 1-3 14-5h3v-2z" fill="#135685"/>
<path transform="translate(645,893)" d="m0 0 3 3 2 5 11 3 4 2-1 2h-4l1 3v4l-1 2-7-9-8-13z" fill="#9E24B6"/>
<path transform="translate(415,808)" d="m0 0h2l-1 8-2 9-4 4-3 6-3 1 2-6 6-16z" fill="#2398D6"/>
<path transform="translate(503,786)" d="m0 0 4 1-8 6-12 7h-4l-1-3 10-6z" fill="#269CDC"/>
<path transform="translate(537,756)" d="m0 0h5l-2 1v2l-19 5-21 7-2-1 14-7z" fill="#164263"/>
<path transform="translate(240,1181)" d="m0 0 8 2h9l2 4-4-2v3l4 1 1 4-7-2-12-6h-5l-1-2h5z" fill="#135685"/>
<path transform="translate(446,908)" d="m0 0 4 4 6 17 2 5h-2l-5-5-3-5-3-15z" fill="#1F8AC3"/>
<path transform="translate(313,862)" d="m0 0 5 1 11 7 9 10 5 8-1 3-5-7v-2l-4-2-7-7-4-5-9-5z" fill="#E2B720"/>
<path transform="translate(449,1295)" d="m0 0h4l2 5-7 2h-11v-3-3z" fill="#14537F"/>
<path transform="translate(406,761)" d="m0 0 5 2 5 3h12l-2 5-2 1h-7l-6-4-5-3z" fill="#1D2434"/>
<path transform="translate(387,741)" d="m0 0 3 1-1 2-11 3-15 2-9 2 4-3 7-3z" fill="#164365"/>
<path transform="translate(392,1166)" d="m0 0 11 6 7 7v3l-4-1-10-7v-2l-4-2-1-3z" fill="#1F91CC"/>
<path transform="translate(270,1164)" d="m0 0 4 1 10 5 4 5-5 2-5-1v-2h-5v-2l2-1-1-3-3-1z" fill="#1E88C0"/>
<path transform="translate(687,910)" d="m0 0 7 1 7 3v1h-17l-6 3h-2v2l-4 3h-2l2-5 12-7z" fill="#1B2939"/>
<path transform="translate(633,875)" d="m0 0 2 4-1 2v6l-6-1-3-3v-2h-2v-4l-2-1 7 1h2z" fill="#135684"/>
<path transform="translate(219,827)" d="m0 0 4 1-8 6-4-1v2l-11 2-6 3-2-1 16-8z" fill="#1F8AC3"/>
<path transform="translate(1045,975)" d="m0 0 8 1 10 4 9 6 7 7h-3l-4-2-3-2v-2l-4-2-4-3-2 1v-2l-9-3-5-2z" fill="#E2B920"/>
<path transform="translate(551,884)" d="m0 0h16l13 4v1l-25-1-4-1z" fill="#166495"/>
<path transform="translate(484,1240)" d="m0 0h8v3l4 1v4l-6 2h-4z" fill="#1D83BB"/>
<path transform="translate(367,733)" d="m0 0 4 2-9 5-7 3-7 4-6 1 5-5 8-5 4-1z" fill="#135685"/>
<path transform="translate(1015,1085)" d="m0 0h1v35l-2 2-1-6-1-17 2-4z" fill="#E2BA20"/>
<path transform="translate(535,948)" d="m0 0h9v2h3l5 5 5 3v2h2l4 5 7 6v3l-4-2-7-8-11-9-10-5z" fill="#2C1F3C"/>
<path transform="translate(299,1142)" d="m0 0 7 6 2 2-1 2h2l5 10 4 4-2 1-3-1-8-10-3-5 2-2-5-5z" fill="#154A71"/>
<path transform="translate(675,870)" d="m0 0h6l3 4 1 6h-6l-5-4-1-3z" fill="#1A3044"/>
<path transform="translate(327,1176)" d="m0 0h2l1 2 3-2 4 5v2l-4-1 3 4 6 1 1 4-8-1v-2l-4-1-1-4 1-1-5-4z" fill="#1C81B8"/>
<path transform="translate(488,1163)" d="m0 0 9 1 23 4 11 1v2h-13l-23-4-7-3z" fill="#1B202B"/>
<path transform="translate(496,785)" d="m0 0 5 2-4 3-20 10-4-1 20-12z" fill="#19334A"/>
<path transform="translate(578,907)" d="m0 0 9 1 5 3-1 2-2-1-1 5-3 1v-2l-4-2-1-2-2 1v-2l-2-2z" fill="#1F95D1"/>
<path transform="translate(409,735)" d="m0 0h2l2 11 5 5 5 2-1 2-7-1-7-7v-11z" fill="#1B2D3E"/>
<path transform="translate(478,1265)" d="m0 0h7l1 6 6-1-3 3-6 3h-4l-1-7z" fill="#1F8AC3"/>
<path transform="translate(554,815)" d="m0 0 3 4 4 7v2l9-3 7-7h2l-1 4-7 6-10 3-5-5-1-6z" fill="#1B2A3B"/>
<path transform="translate(533,1252)" d="m0 0 3 1-7 6-4 2-1 4-5 2v-2l-6 1 1-3 8-3 4-4z" fill="#196EA1"/>
<path transform="translate(303,1173)" d="m0 0 4 1v2h2l1 2 6 3 8 8-4-1-10-5-3-2v-2l-5-2z" fill="#144C74"/>
<path transform="translate(428,768)" d="m0 0 5 2v1l-5 1 6 1-4 2-10-1-10 3-5 2v-2l8-5v-3l4 2h7z" fill="#135483"/>
<path transform="translate(442,1221)" d="m0 0h3l-1 5-4 2v3l-3 1h-8l-1-2 8-4 3-1v-2z" fill="#1C2E41"/>
<path transform="translate(369,1197)" d="m0 0h3l1 3-2 2h5l1 6-6-2-8-2-4 1-1-4 10-1z" fill="#13527F"/>
<path transform="translate(462,788)" d="m0 0 4 2v2h-2l3 4-2 1-1 4 9-2 4 2-7 2-4 1h-3v-12h-2v5l-5-1 4-6z" fill="#1D84BC"/>
<path transform="translate(567,782)" d="m0 0 2 1-7 11-3 7-4-2 1-5-1-2 4-2 2 1v-4z" fill="#1F8AC3"/>
<path transform="translate(457,917)" d="m0 0 5 1 2 6 1 9-5 1-1-6-2-5z" fill="#2396D3"/>
<path transform="translate(651,1085)" d="m0 0h7l-2 4-8 7-3-1 2-7z" fill="#1C1F2B"/>
<path transform="translate(310,934)" d="m0 0 1 3-2 9-8 5-4 1 2-4 5-5 4-8z" fill="#E2B620"/>
<path transform="translate(434,819)" d="m0 0h1v5l-8 11-4 1v-5h2l1-3h2l1-4z" fill="#1F92CD"/>
<path transform="translate(532,1241)" d="m0 0 9 2-5 4-4 2-2-1-6 1 2-6z" fill="#1D86BF"/>
<path transform="translate(286,1143)" d="m0 0 5 1v2h2v3h-6l-2-1 3 6v3l1 2-3-1-2-5-3-1v-2h3l-1-5h3z" fill="#186C9F"/>
<path transform="translate(250,1130)" d="m0 0 1 3-4 5-4 2h-11v-3l8-1 2 1v-2z" fill="#E2B720"/>
<path transform="translate(459,904)" d="m0 0 4 3 2 12 2 7 3 1-4 2-1 4-1-1-2-18-3-5z" fill="#15486D"/>
<path transform="translate(537,823)" d="m0 0 5 2 8 7-2 1v2l-5 1-4-1 2-1-2-7z" fill="#193247"/>
<path transform="translate(363,1203)" d="m0 0 8 2 6 3 1-2 2 4-3-1 1 3-5-2-14-3v-2z" fill="#1F90CB"/>
<path transform="translate(474,955)" d="m0 0 2 1-15 14-9 12-3 7h-1l1-7 8-10 9-10z" fill="#E2B420"/>
<path transform="translate(454,918)" d="m0 0h3l4 13-1 4-4-1v-3l-4-10 1-2z" fill="#183A56"/>
<path transform="translate(386,734)" d="m0 0 5 2v8l-4-2-13 1 1-5h3 4v2l5-1z" fill="#1F8AC3"/>
<path transform="translate(285,1213)" d="m0 0 7 3 7 4v4l-6-1-9-6z" fill="#17486B"/>
<path transform="translate(509,885)" d="m0 0 3 1-4 5h-2v2l-14 8-3-1 5-4 13-9z" fill="#1A2430"/>
<path transform="translate(523,1254)" d="m0 0h2l-2 5-10 6v2l-7 3v-2l3-3v-2z" fill="#1A577D"/>
<path transform="translate(336,1248)" d="m0 0 5 1 13 7 9 6-1 2-4-1-10-7-12-7z" fill="#155987"/>
<path transform="translate(463,1245)" d="m0 0 6 3 5 5 1 4h-3l-1 2-4-6-7-5 3-1z" fill="#193F5A"/>
<path transform="translate(549,793)" d="m0 0h1l1 11 1 1 2 10 3 9-3-1-5-11z" fill="#1B202B"/>
<path transform="translate(452,1234)" d="m0 0 3 3v3l5 2 3 2 1 4-6-1v-2l-5-2-3-3 1-4z" fill="#19415E"/>
<path transform="translate(271,1167)" d="m0 0 3 1 3 4h-4v2h5l2 5-5-1-3-1-2-3h-2v3h-9l4-2h4v-2l5-1z" fill="#135583"/>
<path transform="translate(395,710)" d="m0 0h2v3l3 1-6 1v2l-6 1v2l-4 1v-2h2l-1-2-3-1z" fill="#1C3851"/>
<path transform="translate(440,696)" d="m0 0 12 1 3 2h-26l-10 1v-2l3-1z" fill="#1F3750"/>
<path transform="translate(127,966)" d="m0 0h1v23l-3 1v-23z" fill="#1F93CF"/>
<path transform="translate(485,910)" d="m0 0 3 1-3 3-2 1-1 2-3 1-1 2h-5v-5z" fill="#135887"/>
<path transform="translate(494,753)" d="m0 0 1 3-11 9-4 2v-3l5-5 6-5z" fill="#1A2A3B"/>
<path transform="translate(125,1043)" d="m0 0h1l4 23v8l-2 1-3-18z" fill="#165A86"/>
<path transform="translate(165,942)" d="m0 0h1v15l-1 21h-1l-1-22-2-6 2-2z" fill="#1F90CA"/>
<path transform="translate(417,1295)" d="m0 0 2 1h12v4l-5 1-16-4v-1z" fill="#155C8B"/>
<path transform="translate(295,1126)" d="m0 0 8 3 1 6h-11v-4l4 1z" fill="#1F8CC5"/>
<path transform="translate(577,898)" d="m0 0 16 3v1h-7v2l3 1 3 5-14-7 1-3h-2z" fill="#135482"/>
<path transform="translate(571,858)" d="m0 0 8 3 8-2 5 3-1 2-20-1 2-2-4-1z" fill="#1F95D1"/>
<path transform="translate(474,716)" d="m0 0 3 2v2h2l1 5v14l-2-1-3-16z" fill="#1B212C"/>
<path transform="translate(461,1200)" d="m0 0 2 1 2 3-10 4-4 2-1 4-2-1 2-4 3-5z" fill="#173C58"/>
<path transform="translate(292,1152)" d="m0 0h4v2l5 2 3 1 1 4 3 1v3l4 1v2l-5-2-4-2v-3l-4-2-5-5h-2z" fill="#239AD8"/>
<path transform="translate(521,1129)" d="m0 0h7v2l4 1 4 2-4 1-15-2z" fill="#2C203D"/>
<path transform="translate(512,842)" d="m0 0h8l4 4-3 1h-7l-2 1-1 3h-1v-6z" fill="#1B2838"/>
<path transform="translate(396,1174)" d="m0 0 6 3 8 7 3 3 3 2v2l-4-1-3-3v-2l-5-2-4-3v-2l-7-2z" fill="#135482"/>
<path transform="translate(326,811)" d="m0 0h2v2h4v2l6-1 3 2-1 1-21-1 5-4z" fill="#1F8AC3"/>
<path transform="translate(578,786)" d="m0 0 2 1v12l-1 7h-1v-6l-3-1v-6z" fill="#1F8AC3"/>
<path transform="translate(436,1219)" d="m0 0 1 3 4-3 2 1-2 3h-2v2l-4 3h-5l3-1-1-2-3-3 1-2z" fill="#1E88C0"/>
<path transform="translate(317,1173)" d="m0 0 5 1 1 3-5-2 2 5-4 3-3-3-4-2v-2h3v-2l3 1v2h2z" fill="#1F8AC3"/>
<path transform="translate(566,1127)" d="m0 0 3 1v2l5 1-1 2-6 1h-11l4-2z" fill="#1F202F"/>
<path transform="translate(626,1049)" d="m0 0h4l2 4v3l4-1-1 4-3 1-1 3-4-1-1-3h2l1-2v-1l-2-5z" fill="#135583"/>
<path transform="translate(127,1043)" d="m0 0h2l2 17 1 5v7h-1v-6h-2l-2-10z" fill="#1F91CC"/>
<path transform="translate(273,1204)" d="m0 0 5 2 1 3 5 2 2 5-5-1-6-4z" fill="#183F5C"/>
<path transform="translate(271,1196)" d="m0 0h2v2h3l5 5v2h-6l-7-3z" fill="#1F92CD"/>
<path transform="translate(475,1193)" d="m0 0 14 1 4 2-4 1-20 1 4-3z" fill="#135685"/>
<path transform="translate(309,1161)" d="m0 0 4 3v2h4l2-2 1 4-4 1-1 3h-6l2-1v-2h-2l1-2 2 1v-2l-4-1z" fill="#1F8BC4"/>
<path transform="translate(554,774)" d="m0 0h7l2 2-6 6-2 4-2-3 1-4-1-3z" fill="#1B1F29"/>
<path transform="translate(447,767)" d="m0 0h2v2l-3 2-9 2h-9l-1-2z" fill="#1B2F41"/>
<path transform="translate(119,1055)" d="m0 0 2 1 4 23-3-3-3-9z" fill="#1C71A1"/>
<path transform="translate(473,954)" d="m0 0 2 1-15 14-7 9-2-2h2l2-4 3-5 8-7 4-4z" fill="#262036"/>
<path transform="translate(205,849)" d="m0 0 1 2-10 16-3 3 1-5 5-10z" fill="#135686"/>
<path transform="translate(583,780)" d="m0 0 5 1 3 2-3 1-4-1-1 11-2 13h-1l1-19z" fill="#1B2837"/>
<path transform="translate(513,1232)" d="m0 0h2l1 4-10 3h-10v-3h9l7-2z" fill="#1F8AC3"/>
<path transform="translate(482 1e3)" d="m0 0h1l-1 9v14l1 6-2-1-2-7v-12z" fill="#E3B320"/>
<path transform="translate(547,898)" d="m0 0 24 1-5 4h-7v-2h-2l-1 2-5-3z" fill="#1F8AC3"/>
<path transform="translate(871,1191)" d="m0 0 5 3 2 6-5 2-5-9z" fill="#E2BA20"/>
<path transform="translate(495,907)" d="m0 0 7 1-1 3 2 2-5 2v-2l-4-1v-2l-6 2 4-4z" fill="#1A78AD"/>
<path transform="translate(290,1205)" d="m0 0h7l6 5 3 2h-10l-2-3-4-2z" fill="#1B79AE"/>
<path transform="translate(1086,1110)" d="m0 0 7 3 5 2 3 3-1 3-1-2-5-1-8-4z" fill="#E2B820"/>
<path transform="translate(582,1061)" d="m0 0 1 4h2l1 12-2 10h-1l-1-14z" fill="#362249"/>
<path transform="translate(615,1017)" d="m0 0h2v2l3 1-1 6-6-2-3 3-1-1v-6l6 1z" fill="#135786"/>
<path transform="translate(479,766)" d="m0 0 2 2-7 7-6 7-3-1 10-12z" fill="#183A55"/>
<path transform="translate(562,968)" d="m0 0 4 2 7 10 2 4-1 4-4-7v-2h-2l-4-6v-3h-2z" fill="#E2B720"/>
<path transform="translate(323,1224)" d="m0 0h6l2 3-2 1-2-1 1 5-2 1-4-4-5-3 2-1 4 1z" fill="#1E88C1"/>
<path transform="translate(384,1220)" d="m0 0 6 1 7 3v2l2 1-9-1-5-2z" fill="#1B2A3A"/>
<path transform="translate(282,1166)" d="m0 0 3 2 2 2h2l-1-3h4l2 2h-2v2h-3v3h10v1h-11l-7-6z" fill="#135685"/>
<path transform="translate(566,853)" d="m0 0 10 2v-2l9 1 3 2-10 1-1-1h-13z" fill="#135786"/>
<path transform="translate(399,817)" d="m0 0h3l1 4h2l-2 4-4 4v-7h2v-2l-6 5-2-1z" fill="#13507C"/>
<path transform="translate(459,765)" d="m0 0 2 1-8 4-10 3v1h-8l2-2 9-2 3-1v-3l6 1z" fill="#154C73"/>
<path transform="translate(342,1171)" d="m0 0h7l5 5 1 3-5-1-6-3z" fill="#135685"/>
<path transform="translate(327,1153)" d="m0 0 7 2v2h-3l1 6h-4l-1-7-4-1z" fill="#135685"/>
<path transform="translate(689,969)" d="m0 0h8v2h2l1-2v4l-2 4-4-2z" fill="#1F8AC3"/>
<path transform="translate(446,802)" d="m0 0 1 4-2 5-2-3-3 3-4-1 2-4z" fill="#1F8CC6"/>
<path transform="translate(399,751)" d="m0 0 4 4 5 6h-2v3l-4-2-4-5z" fill="#1A364C"/>
<path transform="translate(450,1214)" d="m0 0 2 4 2 6v7l1 6-3-3-2-13-1-5z" fill="#1F8AC3"/>
<path transform="translate(255,1177)" d="m0 0h4v2l4 2 3 1 5 5-6-1v-2h-5v-2l-7-1z" fill="#154A71"/>
<path transform="translate(633,908)" d="m0 0 5 1v3l-6 1 1 2h-9l1-3 5-2h3z" fill="#1F95D1"/>
<path transform="translate(500,867)" d="m0 0 1 3 2 10-3-1-1 2-4-5 2-5h2z" fill="#9E24B6"/>
<path transform="translate(456,814)" d="m0 0h2l-1 4-2 5-3 4h-2v2h-2l1-4 3-4 2-6z" fill="#135685"/>
<path transform="translate(514,1265)" d="m0 0h5v3l-8 5h-2v-2l-3-1z" fill="#183F5C"/>
<path transform="translate(358,901)" d="m0 0h2l3 6v9l-2-3-2 1-1-6z" fill="#1B1F29"/>
<path transform="translate(562,859)" d="m0 0 3 1v4l-4 1-1 3-9 2v-2l5-3 5-1z" fill="#135685"/>
<path transform="translate(284,819)" d="m0 0 12 1v3l4-1 3 2h-3l-1 2-8-3-7-2z" fill="#1A77AC"/>
<path transform="translate(443,807)" d="m0 0 1 3-4 8-3 8-2-3 3-9 4-6z" fill="#135685"/>
<path transform="translate(586,1214)" d="m0 0 2 1-7 4h-2v2l-10 6-2-1 5-2 1-5 11-4z" fill="#135887"/>
<path transform="translate(265,1199)" d="m0 0 2 1v2l6 1 2 5-1 2-11-8z" fill="#1A364D"/>
<path transform="translate(587,1165)" d="m0 0 4 1-2 2-6 2h-12l-1-2z" fill="#1B202B"/>
<path transform="translate(444,991)" d="m0 0 1 3-3 15-1 14h-1v-26h2z" fill="#1B1F29"/>
<path transform="translate(699,909)" d="m0 0 12 3v2h-12l-3-2v-2z" fill="#3776C0"/>
<path transform="translate(530,1238)" d="m0 0h4v2h5l1 2-3 1-5-1-6 2-3-1z" fill="#2CA5E8"/>
<path transform="translate(279,1175)" d="m0 0 5 1 6-1 3 2v2l-4 1-10-2z" fill="#259CDB"/>
<path transform="translate(644,933)" d="m0 0 5 2 7 8-2 2-5-3-3-6z" fill="#1B2836"/>
<path transform="translate(585,870)" d="m0 0 16 2 6 2v1h-9l-2-1-8-1-3-1z" fill="#269EDE"/>
<path transform="translate(485,726)" d="m0 0 6 2 15 7v2l-5-1-14-7z" fill="#135380"/>
<path transform="translate(415,1130)" d="m0 0 5 1 10 7 2 1v2l-4-1-7-4-6-5z" fill="#1D202E"/>
<path transform="translate(135,1093)" d="m0 0 1 2 4 2-1 2 6 16-2 1-5-12-3-8z" fill="#1F90CB"/>
<path transform="translate(125,927)" d="m0 0h1l-1 21-4 1 3-19z" fill="#6154BC"/>
<path transform="translate(381,823)" d="m0 0h3l-1 8-2 3-3-4 1-6z" fill="#174161"/>
<path transform="translate(562,1219)" d="m0 0h11v1l-10 2-12 4-4 2-3-1 11-5z" fill="#1F8AC3"/>
<path transform="translate(282,1204)" d="m0 0 4 1 2 3 8 2v2l-4 1-6-4h-2l-1 2-3-3v-2h2z" fill="#1F94D0"/>
<path transform="translate(428,801)" d="m0 0 3 1-2 4 1 2-6 2-1 3-1-3 3-6z" fill="#1F8AC3"/>
<path transform="translate(135,1096)" d="m0 0 2 3 5 12 1 5-4-4-5-13z" fill="#196191"/>
<path transform="translate(378,842)" d="m0 0h3v2l4 2 4 7v2h-2l-4-5v-2l-3-1z" fill="#1B2633"/>
<path transform="translate(706,922)" d="m0 0 9 2v3h-9l-2-4z" fill="#9E24B6"/>
<path transform="translate(341,806)" d="m0 0 9 1 6 1 1 3h-7l-9-3z" fill="#1B7CB2"/>
<path transform="translate(471,778)" d="m0 0 2 3-3 7-4-2h-3z" fill="#1E89C2"/>
<path transform="translate(464,782)" d="m0 0 3 1-11 12-3-1 5-6 4-4h2z" fill="#1B2431"/>
<path transform="translate(347,1216)" d="m0 0 2 1-1 7-1 5h-2l-1-2 1-10z" fill="#1A2735"/>
<path transform="translate(256,904)" d="m0 0 2 1-5 11-1 12h-1l-1-7 2-10z" fill="#E2B620"/>
<path transform="translate(579,870)" d="m0 0h6v2h7v2l5-1 1 1 7 1v1h-10l-15-4z" fill="#1F8EC8"/>
<path transform="translate(316,789)" d="m0 0h2v2l-5 2v2l-6 3-4-2 5-2 2-1 1-3z" fill="#1F8AC3"/>
<path transform="translate(513,743)" d="m0 0h11l1 2-7 2h-6l-1-3z" fill="#192F42"/>
<path transform="translate(300,1168)" d="m0 0h5v2l5 2v3l-9-3z" fill="#2398D5"/>
<path transform="translate(309,1140)" d="m0 0h2l1 4h3l1 4h3v4h-3l-6-7z" fill="#2398D6"/>
<path transform="translate(256,1024)" d="m0 0 2 1-1 15-2 1v-16z" fill="#1B222E"/>
<path transform="translate(461,792)" d="m0 0h2v12l-1 6-2-2v-9z" fill="#14507B"/>
<path transform="translate(512,763)" d="m0 0 6 1-4 2-14 5-2-1z" fill="#135381"/>
<path transform="translate(368,1255)" d="m0 0h1v5l4 1 1 2-1 4h-2l-5-6-2-2h4z" fill="#1D3E5C"/>
<path transform="translate(536,1246)" d="m0 0v3l-5 5-5 3-2-1 2-4 8-4z" fill="#183B57"/>
<path transform="translate(328,1204)" d="m0 0h3v2l4 1-1 4h-3l-4-1z" fill="#1B7AB1"/>
<path transform="translate(327,1186)" d="m0 0 3 1 2 6h-7l-1-2-3-2 6-1z" fill="#1F8AC3"/>
<path transform="translate(303,1173)" d="m0 0 4 1v2h2l3 4v3l-5-2v-2l-5-2z" fill="#135685"/>
<path transform="translate(349,938)" d="m0 0h1l-1 9-3 7-3 1 1-4z" fill="#E2B420"/>
<path transform="translate(232,871)" d="m0 0 2 1-6 9-4 8-1-4 6-11z" fill="#E3B320"/>
<path transform="translate(476,862)" d="m0 0 4 1-2 5h-6v-4z" fill="#9E24B6"/>
<path transform="translate(616,859)" d="m0 0h9l3 2v4l-12-4z" fill="#1A2B3D"/>
<path transform="translate(575,846)" d="m0 0h9l1 4-9-1-6 1v-2z" fill="#2A63A3"/>
<path transform="translate(301,776)" d="m0 0 5 1v4l-9 2-3-1 5-4h2z" fill="#135685"/>
<path transform="translate(428,768)" d="m0 0 5 2v1l-5 1 6 1-4 2-9-1v-2l6-3z" fill="#166698"/>
<path transform="translate(333,1195)" d="m0 0 7 1 4 2 1 5-11-6z" fill="#1F8AC3"/>
<path transform="translate(443,1098)" d="m0 0 6 4v2l4 1-2 1h-6l-3-5z" fill="#1B222E"/>
<path transform="translate(613,1023)" d="m0 0 5 2-2 7-4-2-1-5z" fill="#1F8AC3"/>
<path transform="translate(772,974)" d="m0 0h1l-1 7-3 3-3-1 1-4z" fill="#1E293B"/>
<path transform="translate(493,911)" d="m0 0 6 2-1 2-6 2h-5l1-2h2l1-3z" fill="#1F93CF"/>
<path transform="translate(493,854)" d="m0 0 5 2 2 1-1 3v-2l-5 4-3-1z" fill="#9E24B6"/>
<path transform="translate(357,813)" d="m0 0h4l-2 4 1 2-10-1v-2l-2-1 6 1z" fill="#1F8AC3"/>
<path transform="translate(357,810)" d="m0 0h8l8 3-4 2-10-3z" fill="#1F8AC3"/>
<path transform="translate(468,807)" d="m0 0h3l1 3-7 7-4-1 4-2v-3z" fill="#1F8AC4"/>
<path transform="translate(467,734)" d="m0 0h1v9l-4 11h-1l1-8z" fill="#233F60"/>
<path transform="translate(518,1240)" d="m0 0h4v2l-12 6h-3v-2z" fill="#166496"/>
<path transform="translate(352,1163)" d="m0 0 4 1 8 6 1 7-3-2-3-6-7-5z" fill="#135685"/>
<path transform="translate(441,1024)" d="m0 0h1l4 16 1 3-3-1-4-10v-7z" fill="#1B202B"/>
<path transform="translate(271,956)" d="m0 0h18l-2 2-11 1-5-1z" fill="#E2B420"/>
<path transform="translate(676,918)" d="m0 0 2 1-1 2h-2v2l-9 3-2-4h3l3-3 1 2-1 2 4-3h2z" fill="#9E24B6"/>
<path transform="translate(364,824)" d="m0 0 5 1 3 3 1 4-4-1-6-5z" fill="#135685"/>
<path transform="translate(566,1220)" d="m0 0h6l-1 3-13 2 2-3z" fill="#135380"/>
<path transform="translate(303,1216)" d="m0 0 4 1 7 4 2 4-4-1v-2l-7-2z" fill="#135685"/>
<path transform="translate(272,1193)" d="m0 0 5 2 3 3 3 1v2l6 2v2l-5-2-8-5-4-3z" fill="#135685"/>
<path transform="translate(270,1173)" d="m0 0 2 1v3l3 1-8 1h-8v-2h9v-3z" fill="#1F8BC4"/>
<path transform="translate(124,1031)" d="m0 0h1l2 9v10l-3-2-1-11z" fill="#1C81B8"/>
<path transform="translate(217,908)" d="m0 0h1l1 5 3 1 1 5h-5l-1 2z" fill="#E2BA20"/>
<path transform="translate(568,892)" d="m0 0 13 2-4 1-1 3-10-3v-2z" fill="#135685"/>
<path transform="translate(362,1263)" d="m0 0 11 7 1 4-11-7-2-3z" fill="#1B3448"/>
<path transform="translate(495,1252)" d="m0 0 2 1-5 5-6 1v-3l4-2z" fill="#1A76AB"/>
<path transform="translate(392,1166)" d="m0 0 8 4-1 5-3-1v-2l-4-2-1-3z" fill="#1F8AC3"/>
<path transform="translate(535,948)" d="m0 0h9v2h3l3 4-1 2-7-4-7-3z" fill="#222134"/>
<path transform="translate(258,807)" d="m0 0 5 5v1h-5l-1-1h-7l3-3z" fill="#1F8CC6"/>
<path transform="translate(503,786)" d="m0 0 4 1-8 6-4-2 4-3z" fill="#1F8EC8"/>
<path transform="translate(363,1263)" d="m0 0 6 2 6 3 4 5-5-2-7-4z" fill="#186FA3"/>
<path transform="translate(533,1252)" d="m0 0 3 1-6 5-5 2h-3l4-4z" fill="#1F8AC3"/>
<path transform="translate(349,1167)" d="m0 0 5 2 4 3v2l2 1-1 2-3-1-5-5v-2l-3-1z" fill="#135685"/>
<path transform="translate(268,1162)" d="m0 0h7l2 3 4 2-4 1-4-3h-2l-1 2-2-2z" fill="#135685"/>
<path transform="translate(159,851)" d="m0 0 3 1-2 4-4 5-3-1 3-5 1-2h2z" fill="#1B1F29"/>
<path transform="translate(509,740)" d="m0 0h10l1 2-10 2z" fill="#1F8FC9"/>
<path transform="translate(316,1228)" d="m0 0 3 1 2 3 5 2 1 3-5-2-3-1v-2l-4 2-1-2z" fill="#1E8AC3"/>
<path transform="translate(285,1180)" d="m0 0 9 1-2 1v5l-8-5z" fill="#144C75"/>
<path transform="translate(280,1178)" d="m0 0 9 1 5 1v1h-9v2l-4-1-4-3z" fill="#1F8AC3"/>
<path transform="translate(658,1126)" d="m0 0 1 3-7 12-2-1 5-10z" fill="#1B2C3D"/>
<path transform="translate(575,1098)" d="m0 0 2 1-3 3-2 1h-7v-3z" fill="#2F2140"/>
<path transform="translate(569,845)" d="m0 0v3l-3 4h-2v4l-3 1 1-5 5-6z" fill="#1B232F"/>
<path transform="translate(529,1234)" d="m0 0 3 1 1 2-7 3-4 2-1-3z" fill="#1E88C1"/>
<path transform="translate(299,1142)" d="m0 0 7 6 2 2-1 2h2l2 4-4-1-3-5-5-6z" fill="#145E8F"/>
<path transform="translate(299,1140)" d="m0 0 5 2 3 2 1 5-4-2-5-5z" fill="#183851"/>
<path transform="translate(254,1117)" d="m0 0h1v13l-2 3h-2z" fill="#1B1F2A"/>
<path transform="translate(539,1024)" d="m0 0h2l-1 4-4 6-7 6 2-4 6-7z" fill="#E3B220"/>
<path transform="translate(624,879)" d="m0 0 8 2 1 5-5-2-5-4z" fill="#1F8AC3"/>
<path transform="translate(230,865)" d="m0 0h3l-1 5-5 3-2-1 1-4z" fill="#1B2B3C"/>
<path transform="translate(408,824)" d="m0 0 1 2 3 1-3 5-3 4h-2l2-6z" fill="#1F8AC3"/>
<path transform="translate(306,805)" d="m0 0h3v2l10 2v1h-9l-5-1z" fill="#1F8AC3"/>
<path transform="translate(290,793)" d="m0 0 1 2 10-1-4 3-7 1h-5z" fill="#135685"/>
<path transform="translate(483,793)" d="m0 0 4 2-10 5-4-1z" fill="#144D77"/>
<path transform="translate(440,696)" d="m0 0 12 1 3 2h-14z" fill="#375972"/>
<path transform="translate(500,1257)" d="m0 0h2l1 6-5 1v2l-3 1 1-5 4-2z" fill="#1B78AE"/>
<path transform="translate(523,1254)" d="m0 0h2l-2 5-6 3-1-3z" fill="#17496C"/>
<path transform="translate(455,1242)" d="m0 0h5l3 2 1 4-6-1v-2l-3-1z" fill="#1A2E41"/>
<path transform="translate(334,1218)" d="m0 0h6v3l-3 2-5-1z" fill="#144F79"/>
<path transform="translate(566,1211)" d="m0 0 4 1v3l-7 2-3 1 1-3h2v-3z" fill="#1F8AC3"/>
<path transform="translate(239,1184)" d="m0 0 9 3 3 3-4 1-8-6z" fill="#2393D0"/>
<path transform="translate(591,1124)" d="m0 0 6 1-3 3-9 1 2-3z" fill="#1F2131"/>
<path transform="translate(531,906)" d="m0 0 5 1 1 4h-8z" fill="#1F92CE"/>
<path transform="translate(415,803)" d="m0 0 2 3-4 8-4 1 2-4 3-7z" fill="#164365"/>
<path transform="translate(506,780)" d="m0 0m-2 1 2 1v3l-3 2h-6l1-3z" fill="#192A3B"/>
<path transform="translate(387,741)" d="m0 0 3 1-1 2-8 1-7-1v-1z" fill="#135685"/>
<path transform="translate(284,1149)" d="m0 0 4 4-1 2 2 4-3-1-2-5-3-1v-2z" fill="#155E8F"/>
<path transform="translate(663,1132)" d="m0 0v3l-6 7-2-2 5-7z" fill="#204C6F"/>
<path transform="translate(580,999)" d="m0 0h2l2 7-2 7h-1z" fill="#312143"/>
<path transform="translate(551,884)" d="m0 0h6v2h5l-1 2-10-1z" fill="#156293"/>
<path transform="translate(577,818)" d="m0 0h2l-1 4-6 5h-2l2-4z" fill="#1B2431"/>
<path transform="translate(317,770)" d="m0 0 1 3h-2v2l-10 1v-2l2-1h7v-2z" fill="#135685"/>
<path transform="translate(365,769)" d="m0 0 3 1-1 2-11 4-2-1 5-4z" fill="#15486E"/>
<path transform="translate(497,1259)" d="m0 0m-1 2m-1 1 1 4h2l1-2v3l2 1h-6v2h-3l2-7z" fill="#1F8AC3"/>
<path transform="translate(470,1251)" d="m0 0 5 3v3h-3l-1 2-3-6h2z" fill="#19496A"/>
<path transform="translate(371,1206)" d="m0 0 6 2 1-2 2 4-3-1 1 3-5-2-3-2z" fill="#1F8AC3"/>
<path transform="translate(294,1183)" d="m0 0 8 1 1 5-8-3z" fill="#1F96D2"/>
<path transform="translate(488,1163)" d="m0 0 9 1 5 1v2h-7l-7-3z" fill="#241F33"/>
<path transform="translate(527,873)" d="m0 0h6l-5 4-7 1 2-1v-2z" fill="#1B222E"/>
<path transform="translate(417,825)" d="m0 0 2 1-1 13h-2l-1-3z" fill="#135685"/>
<path transform="translate(471,799)" d="m0 0 6 1v1l-7 2-4 1h-3l1-3z" fill="#1F8AC3"/>
<path transform="translate(461,752)" d="m0 0h2l-1 5h-4v2h-5l2-3 5-2z" fill="#1B2634"/>
<path transform="translate(418,706)" d="m0 0h3v2l-9 4-1-4z" fill="#3C9CD2"/>
<path transform="translate(524,1252)" d="m0 0 2 1-10 7-2-1 1-3 5-2z" fill="#1F8AC3"/>
<path transform="translate(371,1202)" d="m0 0h5l1 6-6-2-2-1v-2z" fill="#135685"/>
<path transform="translate(317,1142)" d="m0 0h3v2l4 1 1 7-5-5z" fill="#2395D2"/>
<path transform="translate(779,964)" d="m0 0 1 3-5 8-2 3v-7z" fill="#3087BF"/>
<path transform="translate(874,942)" d="m0 0h3v2l2 1-12 2-1-2z" fill="#E2BA20"/>
<path transform="translate(494,753)" d="m0 0 1 3-8 6-2-1 6-7z" fill="#1B232F"/>
<path transform="translate(341,1217)" d="m0 0h2v4h-2l-1 4-6-1 4-3h2z" fill="#1F8AC3"/>
<path transform="translate(260,1187)" d="m0 0 4 1 2 4 3 2-1 2h-4l-1-5z" fill="#2297D5"/>
<path transform="translate(301,1136)" d="m0 0 4 1v3l3 1v2l-5-1z" fill="#2094D0"/>
<path transform="translate(683,908)" d="m0 0h7v2l-6 2-4-1z" fill="#2386C2"/>
<path transform="translate(536,904)" d="m0 0 11 1v2l-10 1z" fill="#164466"/>
<path transform="translate(496,898)" d="m0 0 2 1-2 5-7-1 5-4z" fill="#135685"/>
<path transform="translate(548,881)" d="m0 0h12l1 2-5 1-8-1z" fill="#1B1F29"/>
<path transform="translate(657,863)" d="m0 0 4 1-3 6-3-1z" fill="#1B2939"/>
<path transform="translate(298,787)" d="m0 0m-1 1v3l-9 3v-3z" fill="#13517C"/>
<path transform="translate(433,785)" d="m0 0 1 2-5 10h-2l3-9z" fill="#1F8AC3"/>
<path transform="translate(120,962)" d="m0 0" fill="#1F8AC3"/>
</svg>
